<?xml version="1.0" encoding="UTF-8"?>
<svg width="105px" height="105px" viewBox="0 0 105 105" version="1.1" xmlns="http://www.w3.org/2000/svg" xmlns:xlink="http://www.w3.org/1999/xlink">
    <!-- Generator: Sketch 64 (93537) - https://sketch.com -->
    <title>Logo / icon / avanttia</title>
    <desc>Created with Sketch.</desc>
    <g id="Logo-/-icon-/-avanttia" stroke="none" stroke-width="1" fill="none" fill-rule="evenodd">
        <g id="Group-3">
            <g id="avanttia" transform="translate(0.000000, 32.000000)">
                <g id="Group" transform="translate(0.000000, 0.000000)">
                    <g id="Group-2">
                        <path d="M75.6,18.8649657 C75.5694821,18.9733439 75.548037,19.0833519 75.5331904,19.1941747 C75.2313102,21.6550934 73.9462574,23.8943665 71.9642406,25.414106 L42.790736,47.7049774 L42.790736,47.7473508 L23.6939265,62.3816685 C19.5649312,65.547453 13.6205306,64.8075476 10.4169713,60.7291045 C7.21176244,56.6506614 7.96068928,50.7778663 12.0896846,47.6112669 L48.2542728,19.9259313 L48.2542728,18.0256457 C48.2493239,12.8161579 50.5752861,7.87231883 54.6086035,4.51748361 L6.92555362,41.0360507 C-0.876317468,47.0090752 -2.2999383,58.1003218 3.7459138,65.8082126 C7.14000403,70.1360071 12.3742438,72.6637455 17.9144878,72.6508169 C21.8801709,72.6645603 25.7345047,71.363207 28.8613567,68.9544402 L48.2501487,54.0797347 L48.2501487,54.0495844 L75.6,33.1366645 L75.6,18.8649657 Z" id="Fill-1" fill="#CCCCCC"></path>
                        <path d="M65.9623936,8.36627961 C60.7183118,8.36873738 56.46613,12.5748144 56.45703,17.7680989 L56.45703,54.9927818 C56.46613,60.18197 60.7108664,64.3864085 65.9508118,64.3946011 C71.1891027,64.3864085 75.4321845,60.1803315 75.4363209,54.9927818 L75.4363209,17.7640026 C75.4297027,12.5789107 71.18993,8.37529146 65.9541209,8.36218331 L65.9623936,8.36627961 Z M65.9623936,72.7641537 L65.9623936,72.7641537 C56.0640755,72.7518648 48.0411845,64.8107848 48.024635,55.009167 L48.024635,17.7754722 C48.0180209,7.96484257 56.0433936,0.00655812481 65.9508118,-7.02183409e-15 C75.8574027,-0.00655002334 83.89353,7.94108405 83.9001488,17.7525329 L83.9001488,54.9780352 C83.90263,64.7927611 75.8739482,72.7543226 65.9623936,72.7641537 L65.9623936,72.7641537 Z" id="Fill-3" fill="#2767D0"></path>
                    </g>
                </g>
            </g>
            <rect id="Rectangle-Copy" fill="#FFFFFF" opacity="0" x="0" y="0" width="105" height="105"></rect>
        </g>
    </g>
</svg>