<?xml version="1.0" encoding="UTF-8"?>
<svg width="105px" height="105px" viewBox="0 0 105 105" version="1.1" xmlns="http://www.w3.org/2000/svg" xmlns:xlink="http://www.w3.org/1999/xlink">
    <!-- Generator: Sketch 64 (93537) - https://sketch.com -->
    <title>Logo / icon / chib</title>
    <desc>Created with Sketch.</desc>
    <g id="Logo-/-icon-/-chib" stroke="none" stroke-width="1" fill="none" fill-rule="evenodd">
        <g id="Group">
            <path d="M31.9772619,86.8387587 C31.9791691,86.8387587 31.9801228,86.8387587 31.98203,86.8387587 L31.9705864,86.8387587 C31.9734473,86.8387587 31.9753546,86.8387587 31.9772619,86.8387587 C23.0254977,86.8359252 15.8532149,79.4734659 15.8122086,70.4552796 L15.8122086,70.2531544 C15.9094793,54.0821901 36.4946271,47.8011953 45.376776,61.0687343 C52.6777994,71.9891647 44.9428724,86.8264801 31.9772619,86.8387587 M57.9285093,51.7039127 C56.2596494,49.3662492 54.2856266,47.2599908 52.0588908,45.4408635 C46.3943037,40.8184292 39.2859144,38.3135873 31.9629574,38.3579793 C26.275483,38.3551458 20.6910012,39.8739187 15.7931359,42.7556202 L15.7931359,25.8658834 C15.7931359,21.5220797 12.258014,18 7.89704478,18 C3.53512197,18 0,21.5220797 0,25.8658834 L0,102.346677 L30.8987016,102.346677 C41.5717755,102.693312 51.7127216,97.7081856 57.9285093,89.0611919 C58.1354479,88.7759498 58.338572,88.4878741 58.534067,88.1950758 C66.5741569,76.1931809 65.2085527,61.9036816 57.9285093,51.7039127" id="Fill-1" fill="#00A5FF"></path>
            <rect id="Rectangle-Copy" fill="#FFFFFF" opacity="0" x="0" y="0" width="105" height="105"></rect>
        </g>
    </g>
</svg>