<?xml version="1.0" encoding="UTF-8"?>
<svg width="105px" height="105px" viewBox="0 0 105 105" version="1.1" xmlns="http://www.w3.org/2000/svg" xmlns:xlink="http://www.w3.org/1999/xlink">
    <!-- Generator: Sketch 64 (93537) - https://sketch.com -->
    <title>Logo / icon / deily</title>
    <desc>Created with Sketch.</desc>
    <g id="Logo-/-icon-/-deily" stroke="none" stroke-width="1" fill="none" fill-rule="evenodd">
        <g id="Group-2">
            <g id="Group" transform="translate(0.000000, 17.000000)">
                <path d="M64,52.735581 L19.9920011,64.3416193 C22.7134006,70.4999092 28.1554146,74.1709093 35.1347916,74.1709093 C41.2865994,74.1709093 47.2012857,71.3279544 52.0528518,65.880206 L62.4626369,75.3546195 C55.1275779,83.9994107 45.4268013,88.3809524 33.8337648,88.3809524 C13.6046423,88.3809524 0,75.3546195 0,55.9326238 C0,36.7480011 12.6577272,23.4850839 32.6505134,23.3660031 C51.1051515,23.247711 63.2902062,34.4980841 64,52.735581 Z M18.1818182,53.3162119 C18.7670808,42.3949663 24.5054522,36.5143571 33.4056406,36.5143571 C39.495325,36.5143571 43.8276672,39.3947207 45.8181818,45.6349758 L18.1818182,53.3162119 Z" id="Fill-1" fill="#354351"></path>
                <path d="M32.9153372,17.4376199 C39.3793391,17.3985063 45.2172278,18.5382763 50.2436356,20.6989109 L54.8571429,3.17054747 L41.4899849,10.6498478 L32.5605133,0 L23.5793297,10.6498478 L8.12698413,4.75621234 L14.4740373,21.3333333 C19.7892368,18.8488382 26.0074077,17.4767335 32.9153372,17.4376199" id="Fill-3" fill="#FFCA06"></path>
            </g>
            <rect id="Rectangle-Copy" fill="#FFFFFF" opacity="0" x="0" y="0" width="105" height="105"></rect>
        </g>
    </g>
</svg>