<?xml version="1.0" encoding="UTF-8"?>
<svg width="105px" height="105px" viewBox="0 0 105 105" version="1.1" xmlns="http://www.w3.org/2000/svg" xmlns:xlink="http://www.w3.org/1999/xlink">
    <!-- Generator: Sketch 64 (93537) - https://sketch.com -->
    <title>Logo / icon / Lendinc</title>
    <desc>Created with Sketch.</desc>
    <g id="Logo-/-icon-/-Lendinc" stroke="none" stroke-width="1" fill="none" fill-rule="evenodd">
        <g id="Group-2">
            <g id="Group" transform="translate(0.000000, 25.000000)">
                <path d="M1.29370833,0 L17.9229861,0 C18.6380417,0 19.2166944,0.586823545 19.2166944,1.31005783 L19.2166944,56.2261033 C19.2166944,56.9493376 19.7961944,57.5361612 20.51125,57.5361612 L59.7054444,57.5361612 C60.4205,57.5361612 61,58.1229847 61,58.846219 L61,75.6908001 C61,76.4140344 60.4205,77 59.7054444,77 L1.29370833,77 C0.578652778,77 0,76.4140344 0,75.6908001 L0,1.31005783 C0,0.586823545 0.578652778,0 1.29370833,0" id="Fill-1" fill="#214466"></path>
                <path d="M37.3088883,27 L70.6902545,27 C71.4128432,27 72,27.6019471 72,28.3438205 L72,41.6561795 C72,42.398933 71.4128432,43 70.6902545,43 L37.3088883,43 C36.5854425,43 36,42.398933 36,41.6561795 L36,28.3438205 C36,27.6019471 36.5854425,27 37.3088883,27" id="Fill-3" fill="#17B9AA"></path>
            </g>
            <rect id="Rectangle-Copy-2" fill="#FFFFFF" opacity="0" x="0" y="0" width="105" height="105"></rect>
        </g>
    </g>
</svg>