<?xml version="1.0" encoding="UTF-8"?>
<svg width="105px" height="105px" viewBox="0 0 105 105" version="1.1" xmlns="http://www.w3.org/2000/svg" xmlns:xlink="http://www.w3.org/1999/xlink">
    <!-- Generator: Sketch 64 (93537) - https://sketch.com -->
    <title>Logo / icon / Lok</title>
    <desc>Created with Sketch.</desc>
    <g id="Logo-/-icon-/-Lok" stroke="none" stroke-width="1" fill="none" fill-rule="evenodd">
        <g id="Group-3">
            <g id="Group-2">
                <rect id="Rectangle" fill="#FFFFFF" opacity="0" x="0" y="0" width="105" height="105"></rect>
                <g id="Lok" transform="translate(0.000000, 26.000000)" fill="#D4320A">
                    <g id="Group">
                        <path d="M45.5879308,0.389356243 L45.0581394,0.315754634 C43.8711383,0.165646089 42.6697667,0.0726756351 41.4521087,0.0300641772 C41.189608,0.0203797549 40.9299815,0.00972689042 40.6693969,0.00585312152 C39.4412005,-0.0154526074 38.2024657,0.0213481971 36.9522345,0.117223977 L36.2634098,0.1704883 C35.6378152,0.216005084 35.0170108,0.304133327 34.4029126,0.431967701 C14.9788231,3.15522724 0,19.7475479 0,40.1516571 C0,58.8338761 12.5885344,74.4006164 29.6108388,79.0588235 L31.0181872,64.1738665 C31.0181872,64.1738665 31.2490728,61.6617274 29.0820054,59.028533 C28.6633456,58.516227 28.1795397,58.0610592 27.643042,57.6746508 C18.0656007,50.7793421 15.8314712,37.3412378 22.6536138,27.6597209 C29.4747983,17.9791724 42.769402,15.7207651 52.3458853,22.6170422 C61.9233266,29.5123508 64.1564981,42.9504552 57.3353136,52.6319721 C55.9567062,54.5882254 54.2638644,56.2965575 52.3267247,57.6891774 C51.6762212,58.1511243 51.0994863,58.7108839 50.6175964,59.3490874 C48.7609313,61.8486367 48.9707402,64.1254444 48.9707402,64.1293182 L50.3780885,79.0152436 C67.3984768,74.3560681 79.9889273,58.7873909 79.9889273,40.1071088 C79.9889273,19.7146208 65.0196845,3.1223002 45.5879308,0.389356243" id="Fill-1"></path>
                    </g>
                </g>
            </g>
        </g>
    </g>
</svg>