<?xml version="1.0" encoding="UTF-8"?>
<svg width="105px" height="105px" viewBox="0 0 105 105" version="1.1" xmlns="http://www.w3.org/2000/svg" xmlns:xlink="http://www.w3.org/1999/xlink">
    <!-- Generator: Sketch 64 (93537) - https://sketch.com -->
    <title>Logo / icon / okboy</title>
    <desc>Created with Sketch.</desc>
    <g id="Logo-/-icon-/-okboy" stroke="none" stroke-width="1" fill="none" fill-rule="evenodd">
        <g id="Group">
            <path d="M64.2589395,32.3272775 C67.1540809,36.3672928 66.2401406,41.9188904 62.2459465,44.8638696 L62.0165752,45.027755 L46.5137996,55.0181652 L46.5408773,55.0580803 L46.2332926,55.2359311 L46.2332926,55.2359311 L45.9307849,55.4231369 L33.981099,63.1882818 C29.0986681,66.3473936 27.6339389,72.7363 30.6657846,77.6475172 C33.7788631,82.6917846 40.4636471,84.3000294 45.5956996,81.2415369 C45.061763,83.9757195 45.6371622,86.807195 47.2008939,89.1289218 C48.7199476,91.3929047 51.0578281,92.9985764 53.7331588,93.6266365 L54.0692979,93.7000292 L43.5767256,100.454824 C39.2857712,103.216448 34.3009532,104.758999 29.1739777,104.910344 C13.8243598,105.361883 1.00819045,93.4987907 0.548717319,78.4142192 C0.517126778,78.1847076 0.494938184,77.9540871 0.482151537,77.7230971 L0.470023026,77.3764273 L0.000614597109,39.3681302 C-0.0596826408,34.3371678 4.324351,30.209284 9.81010474,30.1427588 C15.2021081,30.0773807 19.6428345,33.9634347 19.8465654,38.8687105 L19.853358,39.1278082 L19.9912846,50.3123444 L51.8506265,29.7935019 C56.0205779,27.2963152 61.4470993,28.40479 64.2589395,32.3272775 Z M68.7169623,74.8882143 L68.7170681,74.888318 C71.0228095,78.3075272 70.1321889,82.8874063 66.7513137,85.2436064 L66.532138,85.3909496 L60.412599,89.3550913 C56.8518938,91.6632207 52.0574652,90.7032977 49.7034058,87.2120653 C47.3992179,83.793567 48.2890596,79.2144981 51.6699017,76.8591104 L51.8890763,76.711819 L58.0162309,72.746018 C61.5743975,70.4428666 66.3637491,71.4011302 68.7169623,74.8882143 Z M58.4375866,60.1908293 C60.7366174,63.6427121 59.8482945,68.2646151 56.475406,70.6431933 L56.2567478,70.7919379 L48.7200256,75.7352692 L44.3558161,78.598917 C40.8398043,80.8402512 36.164167,79.8937984 33.8128447,76.4647916 C31.4683621,73.0432532 32.2950498,68.4083308 35.636074,65.9859503 L35.8527392,65.834368 L47.7553589,58.0265514 C51.3076617,55.6964349 56.0896402,56.6655021 58.4375866,60.1908293 Z M49.1037531,21.8975219 C49.8215299,22.8951616 49.6280565,24.2638178 48.6865763,25.0314453 L48.5535716,25.1323051 L40.6953032,30.1804633 C40.6371191,30.2219457 40.5772238,30.2608884 40.5156172,30.2964448 C39.3989969,30.9440787 37.9623644,30.5741231 37.307794,29.4684893 C36.6800462,28.4117362 36.9956459,27.0652959 38.0022396,26.3826915 L38.1437617,26.2938133 L46.0028858,21.243962 C47.0510543,20.6335776 48.3978437,20.917182 49.1037531,21.8975219 Z M17.0618835,14.4531167 L17.1450755,14.5974648 L21.9243508,22.5853752 C21.9728588,22.6568573 22.017256,22.7317843 22.0583645,22.8075726 C22.6585488,23.9504251 22.2622627,25.3852346 21.1728872,26.0139327 C20.1300895,26.6161198 18.8307808,26.261713 18.194515,25.231092 L18.1119476,25.0863877 L13.3326724,17.1010611 C13.287453,17.0330239 13.2463445,16.9641255 13.2077025,16.8917822 C12.6025852,15.7532358 12.9939382,14.3167038 14.0808472,13.6828383 C15.1204993,13.0765323 16.4211756,13.4252442 17.0618835,14.4531167 Z M31.541334,8.00001411 L31.706044,8.00574652 C31.7115363,8.00574652 31.7161132,8.00663339 31.7206901,8.00663339 C33.0476281,8.10369273 34.0548356,9.1815623 34.0417736,10.4516707 L34.0347762,10.6113784 L33.3381704,20.3022361 C33.2356476,21.6360926 32.0401585,22.6382587 30.6643391,22.5460239 C30.6625083,22.5451371 30.6615929,22.5451371 30.6597622,22.5451371 C29.3328242,22.4540375 28.3213986,21.3788583 28.3292639,20.1089557 L28.3356068,19.9492608 L29.0322127,10.2601768 C29.1206386,9.02976518 30.1411242,8.0778443 31.378734,8.00454309 L31.541334,8.00001411 Z" id="Combined-Shape-Copy" fill="#5932FD"></path>
            <rect id="Rectangle-Copy-4" fill="#FFFFFF" opacity="0" x="0" y="0" width="105" height="105"></rect>
        </g>
    </g>
</svg>