<?xml version="1.0" encoding="utf-8"?>
<!-- Generator: Adobe Illustrator 24.1.0, SVG Export Plug-In . SVG Version: 6.00 Build 0)  -->
<svg version="1.1" id="Capa_1" xmlns="http://www.w3.org/2000/svg" xmlns:xlink="http://www.w3.org/1999/xlink" x="0px" y="0px"
	 viewBox="0 0 252 70" style="enable-background:new 0 0 252 70;" xml:space="preserve">
<style type="text/css">
	.st0{fill:#040415;}
	.st1{fill-rule:evenodd;clip-rule:evenodd;fill:#040415;}
</style>
<g id="Capa_3">
	<path class="st0" d="M252,12.1h-15.7v4.6c-4.8-3.6-10.7-5.5-16.7-5.4c-16.2-0.2-29.4,12.8-29.6,29c-0.2,16.2,12.8,29.4,29,29.6
		c0.2,0,0.4,0,0.6,0c6,0,11.8-1.9,16.7-5.4v4.9H252L252,12.1z M226.1,55.6c-7.9,2.9-16.6-1.2-19.5-9c-2.9-7.9,1.2-16.6,9-19.5
		c7.9-2.9,16.6,1.2,19.5,9C238.1,44,234,52.7,226.1,55.6z"/>
	<path class="st0" d="M100.8,50.6c-5.6,6-15,6.4-21,0.8c-1.2-1.1-2.2-2.4-3-3.9l41.9-8c-0.1-1.5-0.2-3-0.5-4.5
		C115.3,20,101.7,8.4,83.9,11.8C68,14.8,57.5,30.1,60.4,46c2.9,15.9,18.2,26.4,34.2,23.5c0.1,0,0.2,0,0.3-0.1
		c13.6-2.6,21.9-12.3,23.5-24.3l-15.8,3C102,49,101.4,49.8,100.8,50.6z M75.4,37c1.6-6.5,7.3-11.1,14-11.3c4.9,0,9.5,2.4,12.3,6.3
		L75.4,37z"/>
	<path class="st1" d="M17.8,12.4l14.2,32l14.2-32H64L35.6,69.3h-7.1L0,12.4H17.8z"/>
	<path class="st0" d="M140.2,12.4V0h-16.1v41.7c0,15.5,12.6,28.1,28.1,28.1c0,0,0,0,0,0c0.7,0,1.4,0,2-0.1V52.7
		c-6.6,1.1-12.7-3.4-13.8-9.9c-0.1-0.6-0.2-1.3-0.2-1.9V27.8h12.1V12.4H140.2z"/>
	<path class="st0" d="M175.1,12.4V0H159v41.7c0,15.5,12.6,28.1,28.1,28.1c0,0,0,0,0,0c0.7,0,1.4,0,2-0.1V52.7
		c-6.6,1.1-12.7-3.4-13.8-9.9c-0.1-0.6-0.2-1.3-0.2-1.9V27.8h12.1V12.4H175.1z"/>
	<path class="st0" d="M252,12.1h-15.7v4.6c-4.8-3.6-10.7-5.5-16.7-5.4c-16.2-0.2-29.4,12.8-29.6,29c-0.2,16.2,12.8,29.4,29,29.6
		c0.2,0,0.4,0,0.6,0c6,0,11.8-1.9,16.7-5.4v4.9H252L252,12.1z M226.1,55.6c-7.9,2.9-16.6-1.2-19.5-9c-2.9-7.9,1.2-16.6,9-19.5
		c7.9-2.9,16.6,1.2,19.5,9C238.1,44,234,52.7,226.1,55.6z"/>
	<path class="st0" d="M100.8,50.6c-5.6,6-15,6.4-21,0.8c-1.2-1.1-2.2-2.4-3-3.9l41.9-8c-0.1-1.5-0.2-3-0.5-4.5
		C115.3,20,101.7,8.4,83.9,11.8C68,14.8,57.5,30.1,60.4,46c2.9,15.9,18.2,26.4,34.2,23.5c0.1,0,0.2,0,0.3-0.1
		c13.6-2.6,21.9-12.3,23.5-24.3l-15.8,3C102,49,101.4,49.8,100.8,50.6z M75.4,37c1.6-6.5,7.3-11.1,14-11.3c4.9,0,9.5,2.4,12.3,6.3
		L75.4,37z"/>
	<path class="st1" d="M17.8,12.4l14.2,32l14.2-32H64L35.6,69.3h-7.1L0,12.4H17.8z"/>
	<path class="st0" d="M140.2,12.4V0h-16.1v41.7c0,15.5,12.6,28.1,28.1,28.1c0,0,0,0,0,0c0.7,0,1.4,0,2-0.1V52.7
		c-6.6,1.1-12.7-3.4-13.8-9.9c-0.1-0.6-0.2-1.3-0.2-1.9V27.8h12.1V12.4H140.2z"/>
	<path class="st0" d="M175.1,12.4V0H159v41.7c0,15.5,12.6,28.1,28.1,28.1c0,0,0,0,0,0c0.7,0,1.4,0,2-0.1V52.7
		c-6.6,1.1-12.7-3.4-13.8-9.9c-0.1-0.6-0.2-1.3-0.2-1.9V27.8h12.1V12.4H175.1z"/>
</g>
</svg>
