<?xml version="1.0" encoding="utf-8"?>
<!-- Generator: Adobe Illustrator 24.1.0, SVG Export Plug-In . SVG Version: 6.00 Build 0)  -->
<svg version="1.1" id="Capa_1" xmlns="http://www.w3.org/2000/svg" xmlns:xlink="http://www.w3.org/1999/xlink" x="0px" y="0px"
	 viewBox="0 0 187.3 52" style="enable-background:new 0 0 187.3 52;" xml:space="preserve">
<style type="text/css">
	.st0{fill:#040415;}
	.st1{fill-rule:evenodd;clip-rule:evenodd;fill:#040415;}
</style>
<g id="Capa_3">
	<path class="st0" d="M187.3,9h-11.7v3.4c-3.6-2.6-7.9-4.1-12.4-4c-12-0.1-21.9,9.5-22,21.6c-0.1,12,9.5,21.9,21.6,22
		c0.1,0,0.3,0,0.4,0c4.5,0,8.8-1.4,12.4-4v3.6h11.7L187.3,9z M168,41.3c-5.9,2.1-12.3-0.9-14.5-6.7c-2.1-5.9,0.9-12.3,6.7-14.5
		c5.9-2.1,12.3,0.9,14.5,6.7C176.9,32.7,173.9,39.2,168,41.3z"/>
	<path class="st0" d="M74.9,37.6c-4.1,4.5-11.1,4.8-15.6,0.6c-0.9-0.8-1.6-1.8-2.2-2.9l31.2-5.9c0-1.1-0.2-2.2-0.4-3.3
		C85.7,14.9,75.6,6.3,62.4,8.8C50.5,11,42.7,22.3,44.9,34.2C47.1,46,58.5,53.8,70.3,51.6c0.1,0,0.2,0,0.2,0
		c10.1-1.9,16.3-9.1,17.4-18.1l-11.8,2.2C75.8,36.4,75.4,37,74.9,37.6z M56,27.5c1.2-4.8,5.4-8.3,10.4-8.4c3.6,0,7,1.8,9.1,4.7
		L56,27.5z"/>
	<path class="st1" d="M13.2,9.2L23.8,33L34.4,9.2h13.2L26.4,51.5h-5.3L0,9.2H13.2z"/>
	<path class="st0" d="M104.2,9.2V0h-12v31c0,11.5,9.3,20.9,20.9,20.9c0,0,0,0,0,0c0.5,0,1,0,1.5-0.1V39.2c-4.9,0.8-9.5-2.5-10.3-7.4
		c-0.1-0.5-0.1-1-0.1-1.4v-9.7h9V9.2H104.2z"/>
	<path class="st0" d="M130.1,9.2V0h-12v31c0,11.5,9.3,20.9,20.9,20.9c0,0,0,0,0,0c0.5,0,1,0,1.5-0.1V39.2c-4.9,0.8-9.5-2.5-10.3-7.4
		c-0.1-0.5-0.1-1-0.1-1.4v-9.7h9V9.2H130.1z"/>
	<path class="st0" d="M187.3,9h-11.7v3.4c-3.6-2.6-7.9-4.1-12.4-4c-12-0.1-21.9,9.5-22,21.6c-0.1,12,9.5,21.9,21.6,22
		c0.1,0,0.3,0,0.4,0c4.5,0,8.8-1.4,12.4-4v3.6h11.7L187.3,9z M168,41.3c-5.9,2.1-12.3-0.9-14.5-6.7c-2.1-5.9,0.9-12.3,6.7-14.5
		c5.9-2.1,12.3,0.9,14.5,6.7C176.9,32.7,173.9,39.2,168,41.3z"/>
	<path class="st0" d="M74.9,37.6c-4.1,4.5-11.1,4.8-15.6,0.6c-0.9-0.8-1.6-1.8-2.2-2.9l31.2-5.9c0-1.1-0.2-2.2-0.4-3.3
		C85.7,14.9,75.6,6.3,62.4,8.8C50.5,11,42.7,22.3,44.9,34.2C47.1,46,58.5,53.8,70.3,51.6c0.1,0,0.2,0,0.2,0
		c10.1-1.9,16.3-9.1,17.4-18.1l-11.8,2.2C75.8,36.4,75.4,37,74.9,37.6z M56,27.5c1.2-4.8,5.4-8.3,10.4-8.4c3.6,0,7,1.8,9.1,4.7
		L56,27.5z"/>
	<path class="st1" d="M13.2,9.2L23.8,33L34.4,9.2h13.2L26.4,51.5h-5.3L0,9.2H13.2z"/>
	<path class="st0" d="M104.2,9.2V0h-12v31c0,11.5,9.3,20.9,20.9,20.9c0,0,0,0,0,0c0.5,0,1,0,1.5-0.1V39.2c-4.9,0.8-9.5-2.5-10.3-7.4
		c-0.1-0.5-0.1-1-0.1-1.4v-9.7h9V9.2H104.2z"/>
	<path class="st0" d="M130.1,9.2V0h-12v31c0,11.5,9.3,20.9,20.9,20.9c0,0,0,0,0,0c0.5,0,1,0,1.5-0.1V39.2c-4.9,0.8-9.5-2.5-10.3-7.4
		c-0.1-0.5-0.1-1-0.1-1.4v-9.7h9V9.2H130.1z"/>
</g>
</svg>
