<?xml version="1.0" encoding="utf-8"?>
<!-- Generator: Adobe Illustrator 24.1.0, SVG Export Plug-In . SVG Version: 6.00 Build 0)  -->
<svg version="1.1" id="Capa_1" xmlns="http://www.w3.org/2000/svg" xmlns:xlink="http://www.w3.org/1999/xlink" x="0px" y="0px"
	 viewBox="0 0 374.6 104" style="enable-background:new 0 0 374.6 104;" xml:space="preserve">
<style type="text/css">
	.st0{fill:#FFFFFF;}
	.st1{fill-rule:evenodd;clip-rule:evenodd;fill:#FFFFFF;}
</style>
<g id="Capa_3">
	<path class="st0" d="M374.6,18h-23.4v6.8c-7.2-5.3-15.9-8.1-24.8-8.1c-24.1-0.2-43.7,19.1-44,43.2c-0.2,24.1,19.1,43.7,43.2,44
		c0.3,0,0.5,0,0.8,0c8.9,0.1,17.6-2.8,24.8-8.1v7.2h23.4L374.6,18z M336.1,82.6c-11.7,4.3-24.7-1.7-29-13.5
		c-4.3-11.7,1.7-24.7,13.5-29c11.7-4.3,24.7,1.7,29,13.4C353.8,65.4,347.8,78.3,336.1,82.6z"/>
	<path class="st0" d="M149.8,75.2c-8.3,9-22.3,9.5-31.2,1.3c-1.8-1.7-3.3-3.6-4.5-5.7l62.3-11.9c-0.1-2.2-0.3-4.4-0.7-6.6
		c-4.3-22.5-24.5-39.7-51-34.6C101.1,22,85.4,44.7,89.8,68.4c4.4,23.7,27.1,39.3,50.8,34.9c0.2,0,0.3-0.1,0.5-0.1
		c20.2-3.9,32.6-18.2,34.9-36.2l-23.5,4.5C151.7,72.8,150.8,74.1,149.8,75.2z M112.1,55c2.4-9.7,10.9-16.6,20.8-16.9
		c7.3,0,14.1,3.5,18.3,9.4L112.1,55z"/>
	<path class="st1" d="M26.5,18.5L47.6,66l21.1-47.5h26.5L52.9,103H42.3L0,18.5H26.5z"/>
	<path class="st0" d="M208.4,18.4V0h-24v62.1c0,23,18.7,41.7,41.7,41.7c0,0,0,0,0,0c1,0,2,0,3-0.1V78.3c-9.7,1.6-18.9-5-20.5-14.7
		c-0.2-1-0.2-1.9-0.2-2.9V41.3h17.9V18.4H208.4z"/>
	<path class="st0" d="M260.3,18.4V0h-24v62.1c0,23,18.7,41.7,41.7,41.7c0,0,0,0,0,0c1,0,2,0,3-0.1V78.3c-9.7,1.6-18.9-5-20.5-14.7
		c-0.2-1-0.2-1.9-0.2-2.9V41.3h17.9V18.4H260.3z"/>
	<path class="st0" d="M374.6,18h-23.4v6.8c-7.2-5.3-15.9-8.1-24.8-8.1c-24.1-0.2-43.7,19.1-44,43.2c-0.2,24.1,19.1,43.7,43.2,44
		c0.3,0,0.5,0,0.8,0c8.9,0.1,17.6-2.8,24.8-8.1v7.2h23.4L374.6,18z M336.1,82.6c-11.7,4.3-24.7-1.7-29-13.5
		c-4.3-11.7,1.7-24.7,13.5-29c11.7-4.3,24.7,1.7,29,13.4C353.8,65.4,347.8,78.3,336.1,82.6z"/>
	<path class="st0" d="M149.8,75.2c-8.3,9-22.3,9.5-31.2,1.3c-1.8-1.7-3.3-3.6-4.5-5.7l62.3-11.9c-0.1-2.2-0.3-4.4-0.7-6.6
		c-4.3-22.5-24.5-39.7-51-34.6C101.1,22,85.4,44.7,89.8,68.4c4.4,23.7,27.1,39.3,50.8,34.9c0.2,0,0.3-0.1,0.5-0.1
		c20.2-3.9,32.6-18.2,34.9-36.2l-23.5,4.5C151.7,72.8,150.8,74.1,149.8,75.2z M112.1,55c2.4-9.7,10.9-16.6,20.8-16.9
		c7.3,0,14.1,3.5,18.3,9.4L112.1,55z"/>
	<path class="st1" d="M26.5,18.5L47.6,66l21.1-47.5h26.5L52.9,103H42.3L0,18.5H26.5z"/>
	<path class="st0" d="M208.4,18.4V0h-24v62.1c0,23,18.7,41.7,41.7,41.7c0,0,0,0,0,0c1,0,2,0,3-0.1V78.3c-9.7,1.6-18.9-5-20.5-14.7
		c-0.2-1-0.2-1.9-0.2-2.9V41.3h17.9V18.4H208.4z"/>
	<path class="st0" d="M260.3,18.4V0h-24v62.1c0,23,18.7,41.7,41.7,41.7c0,0,0,0,0,0c1,0,2,0,3-0.1V78.3c-9.7,1.6-18.9-5-20.5-14.7
		c-0.2-1-0.2-1.9-0.2-2.9V41.3h17.9V18.4H260.3z"/>
</g>
</svg>
