<?xml version="1.0" encoding="UTF-8"?>
<svg width="40px" height="40px" viewBox="0 0 40 40" version="1.1" xmlns="http://www.w3.org/2000/svg" xmlns:xlink="http://www.w3.org/1999/xlink">
    <!-- Generator: Sketch 64 (93537) - https://sketch.com -->
    <title>icon / flag / col</title>
    <desc>Created with Sketch.</desc>
    <defs>
        <path d="M3.9951,0 C1.7883,0 0,1.76622222 0,3.94577778 L0,3.94577778 L0,20.0542222 C0,22.2337778 1.7883,24 3.9951,24 L3.9951,24 L32.0049,24 C34.2108,24 36,22.2337778 36,20.0542222 L36,20.0542222 L36,3.94577778 C36,1.76622222 34.2108,0 32.0049,0 L32.0049,0 L3.9951,0 Z" id="path-1"></path>
    </defs>
    <g id="icon-/-flag-/-col" stroke="none" stroke-width="1" fill="none" fill-rule="evenodd">
        <rect id="Rectangle" stroke="#FFFFFF" opacity="0" x="0" y="0" width="40" height="40"></rect>
        <g id="Group-5" transform="translate(2.000000, 8.000000)">
            <g id="Group">
                <mask id="mask-2" fill="white">
                    <use xlink:href="#path-1"></use>
                </mask>
                <g id="Clip-2"></g>
                <polygon id="Fill-1" fill="#FED526" mask="url(#mask-2)" points="0 12 36 12 36 0 0 0"></polygon>
                <polygon id="Fill-3" fill="#003FA4" mask="url(#mask-2)" points="0 18 36 18 36 12 0 12"></polygon>
                <polygon id="Fill-4" fill="#D71029" mask="url(#mask-2)" points="0 24 36 24 36 18 0 18"></polygon>
            </g>
        </g>
    </g>
</svg>