<?xml version="1.0" encoding="utf-8"?>
<!-- Generator: Adobe Illustrator 24.1.0, SVG Export Plug-In . SVG Version: 6.00 Build 0)  -->
<svg version="1.1" id="Capa_1" xmlns="http://www.w3.org/2000/svg" xmlns:xlink="http://www.w3.org/1999/xlink" x="0px" y="0px"
	 viewBox="0 0 50 51" style="enable-background:new 0 0 50 51;" xml:space="preserve">
<style type="text/css">
	.st0{fill:none;}
	.st1{fill-rule:evenodd;clip-rule:evenodd;fill:#FFFFFF;}
</style>
<rect x="-342.5" y="-70.2" class="st0" width="88.5" height="16.2"/>
<desc>Created with Sketch.</desc>
<g id="Desktop">
	<g id="Home_Todas-activo-fotos" transform="translate(-1103.000000, -7848.000000)">
		<g id="Footer" transform="translate(0.000000, 7322.000000)">
			<g id="icon-_x2F_-social-media-_x2F_-instagram" transform="translate(1103.000000, 526.000000)">
				<path id="Combined-Shape" class="st1" d="M26.8,6.4c6.6,0,11.9,5.3,11.9,11.9l0,0v14.8c0,6.6-5.3,11.9-11.9,11.9l0,0H11.9
					C5.3,45,0,39.7,0,33.1l0,0V18.3C0,11.7,5.3,6.4,11.9,6.4l0,0H26.8z M25.3,10.1h-12c-5.3,0-9.6,4.3-9.6,9.6l0,0v12
					c0,5.3,4.3,9.6,9.6,9.6l0,0h12c5.3,0,9.6-4.3,9.6-9.6l0,0v-12C35,14.4,30.6,10.1,25.3,10.1L25.3,10.1z M19.5,15.4
					c5.8,0,10.5,4.7,10.5,10.5s-4.7,10.5-10.5,10.5S9,31.7,9,25.9S13.7,15.4,19.5,15.4z M19.5,19.5c-3.5,0-6.3,2.8-6.3,6.3
					s2.8,6.3,6.3,6.3s6.3-2.8,6.3-6.3C25.8,22.4,23,19.5,19.5,19.5z M29,13.4c1.1,0,2,0.9,2,2s-0.9,2-2,2s-2-0.9-2-2
					S27.9,13.4,29,13.4z"/>
			</g>
		</g>
	</g>
</g>
</svg>
