<?xml version="1.0" encoding="utf-8"?>
<!-- Generator: Adobe Illustrator 24.1.0, SVG Export Plug-In . SVG Version: 6.00 Build 0)  -->
<svg version="1.1" id="Capa_1" xmlns="http://www.w3.org/2000/svg" xmlns:xlink="http://www.w3.org/1999/xlink" x="0px" y="0px"
	 viewBox="0 0 50 50" style="enable-background:new 0 0 50 50;" xml:space="preserve">
<style type="text/css">
	.st0{fill:none;}
	.st1{fill-rule:evenodd;clip-rule:evenodd;fill:#FFFFFF;}
</style>
<rect x="-341.8" y="-70.7" class="st0" width="88.5" height="16.2"/>
<desc>Created with Sketch.</desc>
<g id="Desktop_2_">
	<g id="Home_Todas-activo-fotos_2_" transform="translate(-1050.000000, -7848.000000)">
		<g id="Footer_2_" transform="translate(0.000000, 7322.000000)">
			<g id="icon-_x2F_-social-media-_x2F_-linkedin" transform="translate(1050.434783, 526.000000)">
				<g id="in">
					<g id="Clip-2">
					</g>
					<path id="Fill-1" class="st1" d="M30.8,36.1h-4.7v-7.2c0-1.7,0-3.9-2.4-3.9s-2.8,1.9-2.8,3.8v7.4h-4.7V21.3h4.5v2h0.1
						c0.6-1.2,2.1-2.4,4.4-2.4c4.7,0,5.6,3.1,5.6,7.1C30.8,28,30.8,36.1,30.8,36.1z M11,19.2c-1.5,0-2.7-1.2-2.7-2.7
						s1.2-2.7,2.7-2.7s2.7,1.2,2.7,2.7S12.5,19.2,11,19.2L11,19.2z M8.7,36.1h4.7V21.3H8.7V36.1z M32.6,5.7h-27c-3.3,0-6,2.7-6,5.9
						v26.7c0,3.3,2.7,5.9,6,5.9h27c3.3,0,6-2.7,6-5.9V11.6C38.6,8.4,35.9,5.7,32.6,5.7L32.6,5.7z"/>
				</g>
			</g>
		</g>
	</g>
</g>
</svg>
