<?xml version="1.0" encoding="utf-8"?>
<!-- Generator: Adobe Illustrator 24.1.0, SVG Export Plug-In . SVG Version: 6.00 Build 0)  -->
<svg version="1.1" id="Capa_1" xmlns="http://www.w3.org/2000/svg" xmlns:xlink="http://www.w3.org/1999/xlink" x="0px" y="0px"
	 viewBox="0 0 50 50" style="enable-background:new 0 0 50 50;" xml:space="preserve">
<style type="text/css">
	.st0{fill-rule:evenodd;clip-rule:evenodd;fill:#FFFFFF;}
</style>
<desc>Created with Sketch.</desc>
<g id="Desktop">
	<g id="Únete-a-Vetta" transform="translate(-998.000000, -5188.000000)">
		<g id="Footer" transform="translate(0.000000, 4662.000000)">
			<g id="Social-media" transform="translate(998.000000, 526.000000)">
				<g id="Group-3">
					<g id="icon-_x2F_-social-media-_x2F_-medium">
						<path id="Fill-1" class="st0" d="M32.6,14.9l-2.1,2c-0.2,0.1-0.3,0.4-0.2,0.6V32c0,0.2,0.1,0.4,0.2,0.6l2.1,2V35H22.2v-0.4
							l2.1-2c0.2-0.2,0.2-0.3,0.2-0.6V20.2L18.6,35h-0.8l-6.9-14.8v9.9c-0.1,0.4,0.1,0.8,0.4,1.1l2.8,3.3v0.4H6.2v-0.4L9,31.2
							c0.3-0.3,0.4-0.7,0.4-1.1V18.6c0-0.3-0.1-0.6-0.3-0.8l-2.5-2.9v-0.4h7.6l5.9,12.7l5.2-12.7h7.3V14.9z M35.9,5.8H3.3
							C1.5,5.8,0,7.2,0,9v32c0,1.8,1.5,3.3,3.3,3.3h32.6c1.8,0,3.3-1.5,3.3-3.3V9C39.2,7.2,37.8,5.8,35.9,5.8L35.9,5.8z"/>
					</g>
				</g>
			</g>
		</g>
	</g>
</g>
</svg>
