<?xml version="1.0" encoding="utf-8"?>
<!-- Generator: Adobe Illustrator 24.1.0, SVG Export Plug-In . SVG Version: 6.00 Build 0)  -->
<svg version="1.1" id="Capa_1" xmlns="http://www.w3.org/2000/svg" xmlns:xlink="http://www.w3.org/1999/xlink" x="0px" y="0px"
	 viewBox="0 0 142.9 51" style="enable-background:new 0 0 142.9 51;" xml:space="preserve">
<style type="text/css">
	.st0{fill:none;}
	.st1{enable-background:new    ;}
	.st2{fill:#FFFFFF;}
</style>
<rect x="-204.4" y="-70.2" class="st0" width="88.5" height="16.2"/>
<g class="st1">
	<path class="st2" d="M4,36.2c-1.1-0.4-2.1-0.9-2.9-1.5l1.1-2.3C3,33,3.9,33.5,4.8,33.8c0.9,0.3,1.9,0.4,3,0.4
		c1.2,0,2.1-0.2,2.8-0.6s1-1,1-1.8c0-0.6-0.3-1.1-0.9-1.5c-0.6-0.3-1.6-0.7-3-1C5.6,28.8,4,28.2,3,27.5c-1-0.7-1.5-1.8-1.5-3.2
		c0-1,0.3-1.9,0.8-2.7c0.5-0.8,1.3-1.4,2.3-1.8s2.2-0.7,3.5-0.7c1.2,0,2.3,0.2,3.4,0.5c1.1,0.4,2,0.9,2.7,1.5l-1,2.3
		c-1.5-1.2-3.2-1.8-5-1.8c-1.1,0-2,0.2-2.6,0.7s-1,1.1-1,1.9c0,0.7,0.3,1.2,0.9,1.5c0.6,0.4,1.5,0.7,2.9,1s2.6,0.7,3.5,1.1
		s1.6,0.9,2.1,1.5s0.7,1.4,0.7,2.3c0,1-0.3,1.9-0.8,2.7s-1.3,1.3-2.4,1.8c-1,0.4-2.2,0.6-3.6,0.6C6.3,36.8,5.1,36.6,4,36.2z"/>
	<path class="st2" d="M17.3,36.5V19.4h3.1v17.1H17.3z M19.8,18h-1.9l2.5-3.7h2.9L19.8,18z"/>
	<path class="st2" d="M38.4,27.3v8.2c-0.8,0.4-1.7,0.7-2.8,0.9s-2.2,0.3-3.4,0.3c-1.8,0-3.3-0.4-4.6-1.1c-1.3-0.7-2.3-1.7-3-3
		s-1-2.9-1-4.7c0-1.8,0.3-3.3,1-4.7c0.7-1.3,1.7-2.3,2.9-3c1.3-0.7,2.8-1.1,4.5-1.1c1.2,0,2.3,0.2,3.4,0.5c1,0.4,1.9,0.8,2.6,1.5
		l-1,2.4c-0.8-0.6-1.6-1.1-2.4-1.3s-1.6-0.4-2.5-0.4c-1.8,0-3.1,0.5-4,1.6S26.7,26,26.7,28c0,2.1,0.5,3.7,1.4,4.7
		c0.9,1.1,2.3,1.6,4.2,1.6c1.1,0,2.2-0.2,3.3-0.5v-4.3h-3.7v-2.2H38.4z"/>
	<path class="st2" d="M43.6,34.9c-1.2-1.2-1.8-3-1.8-5.3V19.4h3v10.4c0,1.5,0.3,2.6,1,3.4c0.7,0.8,1.7,1.1,3.1,1.1
		c1.3,0,2.3-0.4,3-1.2s1-1.9,1-3.3V19.4H56v10.2c0,2.3-0.6,4.1-1.8,5.3s-3,1.8-5.3,1.8C46.6,36.8,44.8,36.1,43.6,34.9z"/>
	<path class="st2" d="M59.6,36.5V19.4H71v2.4h-8.4v4.7h7.9V29h-7.9v5H71v2.4L59.6,36.5L59.6,36.5z"/>
	<path class="st2" d="M85.4,19.4h2.9v17.1H86l-9.2-12v12h-2.9V19.4h2.3l9.2,12V19.4z"/>
	<path class="st2" d="M95.3,35.7c-1.2-0.7-2.2-1.7-2.8-3c-0.7-1.3-1-2.9-1-4.7c0-1.8,0.3-3.3,1-4.6c0.7-1.3,1.6-2.3,2.8-3
		c1.2-0.7,2.7-1.1,4.3-1.1c1.7,0,3.1,0.4,4.3,1.1c1.2,0.7,2.2,1.7,2.8,3c0.6,1.3,1,2.9,1,4.6c0,1.8-0.3,3.4-1,4.7
		c-0.7,1.3-1.6,2.3-2.8,3c-1.2,0.7-2.7,1.1-4.3,1.1S96.6,36.4,95.3,35.7z M103.3,32.6c0.9-1.1,1.3-2.6,1.3-4.7c0-2-0.4-3.6-1.3-4.6
		c-0.9-1.1-2.1-1.6-3.7-1.6s-2.8,0.5-3.7,1.6c-0.9,1.1-1.3,2.6-1.3,4.7c0,2,0.4,3.6,1.3,4.7c0.9,1.1,2.1,1.6,3.7,1.6
		S102.5,33.7,103.3,32.6z"/>
	<path class="st2" d="M113,36.2c-1.1-0.4-2.1-0.9-2.9-1.5l1.1-2.3c0.8,0.6,1.7,1.1,2.6,1.4c0.9,0.3,1.9,0.4,3,0.4
		c1.2,0,2.1-0.2,2.8-0.6s1-1,1-1.8c0-0.6-0.3-1.1-0.9-1.5c-0.6-0.3-1.6-0.7-3-1c-2.1-0.5-3.7-1.1-4.7-1.8s-1.5-1.8-1.5-3.2
		c0-1,0.3-1.9,0.8-2.7s1.3-1.4,2.3-1.8s2.2-0.7,3.5-0.7c1.2,0,2.3,0.2,3.4,0.5c1.1,0.4,2,0.9,2.7,1.5l-1,2.3c-1.5-1.2-3.2-1.8-5-1.8
		c-1.1,0-2,0.2-2.6,0.7s-1,1.1-1,1.9c0,0.7,0.3,1.2,0.9,1.5c0.6,0.4,1.5,0.7,2.9,1s2.6,0.7,3.5,1.1s1.6,0.9,2.1,1.5s0.7,1.4,0.7,2.3
		c0,1-0.3,1.9-0.8,2.7s-1.3,1.3-2.4,1.8s-2.2,0.6-3.6,0.6C115.4,36.8,114.2,36.6,113,36.2z"/>
</g>
<desc>Created with Sketch.</desc>
</svg>
