<?xml version="1.0" encoding="utf-8"?>
<!-- Generator: Adobe Illustrator 24.1.0, SVG Export Plug-In . SVG Version: 6.00 Build 0)  -->
<svg version="1.1" id="Capa_1" xmlns="http://www.w3.org/2000/svg" xmlns:xlink="http://www.w3.org/1999/xlink" x="0px" y="0px"
	 viewBox="0 0 50 50" style="enable-background:new 0 0 50 50;" xml:space="preserve">
<style type="text/css">
	.st0{fill:none;}
	.st1{fill-rule:evenodd;clip-rule:evenodd;fill:#FFFFFF;}
</style>
<rect x="-342.7" y="-71.2" class="st0" width="88.5" height="16.2"/>
<desc>Created with Sketch.</desc>
<g id="Desktop_1_">
	<g id="Home_Todas-activo-fotos_1_" transform="translate(-1156.000000, -7848.000000)">
		<g id="Footer_1_" transform="translate(0.000000, 7322.000000)">
			<g id="icon-_x2F_-social-media-_x2F_-twitter" transform="translate(1156.000000, 526.000000)">
				<path id="Fill-1-Copy" class="st1" d="M31.4,20.3c0,0.2,0,0.5,0,0.7c0,7.6-5.8,16.4-16.5,16.4c-3.3,0-6.3-1-8.9-2.6
					C6.5,35,6.9,35,7.4,35c2.7,0,5.2-0.9,7.2-2.5c-2.5,0-4.7-1.7-5.4-4c0.3,0.1,0.7,0.1,1.1,0.1c0.5,0,1-0.1,1.5-0.2
					c-2.7-0.5-4.7-2.9-4.7-5.6c0,0,0,0,0-0.1c0.8,0.4,1.7,0.7,2.6,0.7c-1.6-1-2.6-2.8-2.6-4.8c0-1.1,0.3-2,0.8-2.9
					c2.9,3.5,7.1,5.8,12,6c-0.1-0.4-0.1-0.9-0.1-1.3c0-3.2,2.6-5.7,5.8-5.7c1.7,0,3.2,0.7,4.2,1.8c1.3-0.3,2.6-0.7,3.7-1.4
					c-0.4,1.3-1.4,2.5-2.6,3.2c1.2-0.1,2.3-0.4,3.3-0.9C33.5,18.4,32.5,19.5,31.4,20.3 M31,5.7H8c-4.4,0-8,3.6-8,7.9v22.7
					c0,4.4,3.6,7.9,8,7.9h23c4.4,0,8-3.6,8-7.9V13.6C39,9.2,35.4,5.7,31,5.7"/>
			</g>
		</g>
	</g>
</g>
</svg>
