<?xml version="1.0" encoding="utf-8"?>
<!-- Generator: Adobe Illustrator 24.1.0, SVG Export Plug-In . SVG Version: 6.00 Build 0)  -->
<svg version="1.1" id="Capa_1" xmlns="http://www.w3.org/2000/svg" xmlns:xlink="http://www.w3.org/1999/xlink" x="0px" y="0px"
	 viewBox="0 0 189.7 51" style="enable-background:new 0 0 189.7 51;" xml:space="preserve">
<style type="text/css">
	.st0{fill:none;}
	.st1{fill:#FFFFFF;}
	.st2{fill-rule:evenodd;clip-rule:evenodd;fill:#FFFFFF;}
</style>
<rect y="-70.2" class="st0" width="88.5" height="16.2"/>
<desc>Created with Sketch.</desc>
<g id="Logo-_x2F_-vta_1_">
	<g id="Recurso-6blanco_1_" transform="translate(4.000000, 0.000000)">
		<path id="Path_3_" class="st1" d="M60.7,39.6c-2.2,0-4.2-0.9-5.8-2.4c-1.5-1.5-2.4-3.6-2.4-5.8V21.3h8.8V10.1h-8.8V0H41.3v31.6
			c0,10.7,8.7,19.3,19.3,19.3h2V39.6H60.7z"/>
		<polygon id="Path_2_" class="st2" points="8.6,10.1 18.6,32.6 28.7,10.1 41.3,10.1 21.2,50.2 16.1,50.2 -4,10.1 		"/>
		<path id="Shape_1_" class="st1" d="M96.1,10.1v3.2c-3.4-2.5-7.6-3.9-11.8-3.8c-11.5,0-20.7,9.3-20.7,20.7s9.3,20.7,20.7,20.7
			c4.2,0,8.4-1.3,11.8-3.8v3.4h11.1V10.1H96.1z M88.1,40.3c-4,1.5-8.4,0.4-11.3-2.7C74,34.4,73.3,29.9,75,26c1.8-3.8,5.7-6.2,9.9-6
			c4.2,0.2,7.9,2.9,9.4,6.9C96.3,32.3,93.5,38.3,88.1,40.3L88.1,40.3z"/>
	</g>
</g>
<g>
	<path class="st1" d="M138.4,48.9v1.9h-12.7v-1.7l6.9-7.6c0.9-1,1.6-2,2-2.8s0.6-1.7,0.6-2.5c0-1.1-0.3-1.9-0.9-2.5
		c-0.6-0.6-1.5-0.9-2.7-0.9c-1.9,0-3.7,0.8-5.6,2.3l-0.9-1.7c0.8-0.7,1.8-1.3,2.9-1.8c1.2-0.4,2.4-0.7,3.6-0.7
		c1.8,0,3.2,0.5,4.3,1.4s1.6,2.2,1.6,3.8c0,1.1-0.3,2.2-0.8,3.3c-0.5,1-1.4,2.2-2.5,3.5l-5.6,6.1L138.4,48.9L138.4,48.9z"/>
	<path class="st1" d="M143.2,48.4c-1.2-1.7-1.8-4.2-1.8-7.5s0.6-5.8,1.8-7.5s2.9-2.6,5.1-2.6s4,0.9,5.1,2.6s1.8,4.2,1.8,7.5
		s-0.6,5.8-1.8,7.5s-2.9,2.6-5.1,2.6S144.3,50.1,143.2,48.4z M151.8,47.1c0.7-1.3,1.1-3.4,1.1-6.2s-0.4-4.8-1.1-6.2
		c-0.7-1.3-1.9-2-3.5-2s-2.7,0.7-3.5,2c-0.7,1.3-1.1,3.4-1.1,6.2s0.4,4.9,1.1,6.2s1.9,2,3.5,2S151,48.4,151.8,47.1z"/>
	<path class="st1" d="M171.6,48.9v1.9h-12.7v-1.7l6.9-7.6c0.9-1,1.6-2,2-2.8s0.6-1.7,0.6-2.5c0-1.1-0.3-1.9-0.9-2.5
		c-0.6-0.6-1.5-0.9-2.7-0.9c-1.9,0-3.7,0.8-5.6,2.3l-0.9-1.7c0.8-0.7,1.8-1.3,2.9-1.8c1.2-0.4,2.4-0.7,3.6-0.7
		c1.8,0,3.2,0.5,4.3,1.4s1.6,2.2,1.6,3.8c0,1.1-0.3,2.2-0.8,3.3c-0.5,1-1.4,2.2-2.5,3.5l-5.6,6.1L171.6,48.9L171.6,48.9z"/>
	<path class="st1" d="M176.4,48.4c-1.2-1.7-1.8-4.2-1.8-7.5s0.6-5.8,1.8-7.5s2.9-2.6,5.1-2.6s4,0.9,5.1,2.6s1.8,4.2,1.8,7.5
		s-0.6,5.8-1.8,7.5s-2.9,2.6-5.1,2.6S177.6,50.1,176.4,48.4z M185,47.1c0.7-1.3,1.1-3.4,1.1-6.2s-0.4-4.8-1.1-6.2
		c-0.7-1.3-1.9-2-3.5-2s-2.7,0.7-3.5,2c-0.7,1.3-1.1,3.4-1.1,6.2s0.4,4.9,1.1,6.2s1.9,2,3.5,2S184.3,48.4,185,47.1z"/>
</g>
</svg>
