<?xml version="1.0" encoding="UTF-8"?>
<svg width="108px" height="33px" viewBox="0 0 108 33" version="1.1" xmlns="http://www.w3.org/2000/svg" xmlns:xlink="http://www.w3.org/1999/xlink">
    <!-- Generator: Sketch 64 (93537) - https://sketch.com -->
    <title>Logo / Banco Base</title>
    <desc>Created with Sketch.</desc>
    <g id="Desktop" stroke="none" stroke-width="1" fill="none" fill-rule="evenodd">
        <g id="Home_Todas-Copy" transform="translate(-306.000000, -1271.000000)">
            <g id="Home_2" transform="translate(0.000000, 1012.000000)">
                <g id="Logo-/-Banco-Base" transform="translate(290.000000, 255.000000)">
                    <rect id="Rectangle-Copy-8" x="0" y="0" width="140" height="42"></rect>
                    <g id="Group" stroke-width="1" fill-rule="evenodd" transform="translate(16.800000, 4.200000)" fill="#FFFFFF">
                        <path d="M21.461638,29.8590784 C22.2082065,31.1628614 21.6220493,32.2060852 20.0754417,32.2060852 L1.73205039,32.2060852 C0.185442819,32.2060852 -0.454184841,31.1628614 0.345854172,29.8590784 L9.51754984,14.313366 C10.2641184,13.0095829 11.5433737,13.0095829 12.2899423,14.313366 L21.461638,29.8590784 Z" id="Fill-4"></path>
                        <path d="M21.3657566,24.6483852 L20.4189472,21.4455146 L16.2594943,7.3592087 C15.8821943,5.89662046 14.6465623,5.63572634 13.5716132,6.68029105 L6.21883962,14.093044 L0.725107547,19.6340793 C-0.350858491,20.7310205 -0.0274584906,21.8793499 1.4766566,22.2449969 L4.48692075,22.9772793 L8.93214528,15.4993028 L9.4864,14.5673969 C9.86878491,13.9033028 10.3915132,13.5811381 10.9111906,13.5920087 C11.4125623,13.6038675 11.9119,13.9260322 12.2810642,14.5673969 L19.4833245,26.6337499 C20.9355736,26.9460322 21.7959396,26.0585969 21.3657566,24.6483852" id="Fill-12" opacity="0.857398624"></path>
                        <path d="M22.8167853,19.9996275 L22.1720192,1.98014517 C22.1181192,0.464192227 20.9892702,-0.109972479 19.6458381,0.672709874 L4.00365132,10.2842863 C2.71310226,11.0679569 2.71310226,12.3210393 4.11043434,13.0009452 L6.21965321,14.0929452 L13.5714098,6.68019223 C14.6463589,5.63562752 15.8830079,5.89652164 16.2592909,7.35910987 L20.4197608,21.4454158 L20.4523042,21.4612275 C21.8496362,22.1411334 22.8706853,21.5145922 22.8167853,19.9996275" id="Fill-9" opacity="0.539946057"></path>
                        <path d="M103.043797,6.63333176 C103.313297,6.99897882 103.634663,7.20848471 104.119763,7.20848471 C104.602829,7.20848471 104.979112,6.99897882 105.193695,6.63333176 C105.463195,6.26867294 105.569978,5.85064941 105.569978,5.38024941 C105.569978,4.90984941 105.463195,4.49182588 105.193695,4.12716706 C104.925212,3.76152 104.602829,3.55201412 104.119763,3.55201412 C103.634663,3.55201412 103.313297,3.76152 103.043797,4.12716706 C102.774297,4.49182588 102.667514,4.90984941 102.667514,5.38024941 C102.667514,5.79728471 102.774297,6.21530824 103.043797,6.63333176 M59.6661958,12.1713035 C61.0096279,12.1713035 62.084577,12.9539859 62.567643,14.0509271 L62.567643,14.0509271 L69.0722543,29.8251388 C69.4485374,30.6611859 69.0183543,31.6543624 68.1051053,32.0190212 C67.2447392,32.3846682 66.2236902,31.9666447 65.8474072,31.0782212 L65.8474072,31.0782212 L64.6646581,28.2577976 C64.3422751,27.57888 63.7514091,27.3179859 62.891043,27.3179859 L62.891043,27.3179859 L56.3864317,27.3179859 C55.6887826,27.2656094 54.9362166,27.57888 54.6667166,28.2577976 L54.6667166,28.2577976 L53.4839675,31.0782212 C53.1615845,31.9666447 52.1405355,32.3846682 51.2262694,32.0190212 C50.3130204,31.7057506 49.8828374,30.7125741 50.2591204,29.8251388 L50.2591204,29.8251388 L56.7627147,14.0509271 C57.2467977,12.9539859 58.3756468,12.1713035 59.6661958,12.1713035 Z M42.0884906,12.4831906 C45.8513208,12.4831906 48.2158019,14.7828141 48.2158019,18.0202729 C48.2158019,19.6913788 47.0340698,21.4672376 45.6357208,22.2509082 C47.1418698,23.0345788 48.4853019,24.4447906 48.4853019,26.5872847 C48.4853019,30.1903906 45.6906377,32.0186259 42.0884906,32.0186259 L42.0884906,32.0186259 L42.0884906,32.0710024 L31.929866,32.0710024 C31.339,32.0710024 30.854917,31.6006024 30.854917,31.0264376 L30.854917,31.0264376 L30.854917,13.5287435 C30.854917,12.9535906 31.339,12.4831906 31.929866,12.4831906 L31.929866,12.4831906 Z M85.3049004,12.3789318 C86.2730664,12.3789318 87.0795325,13.1626024 87.0795325,14.1034024 C87.0795325,15.0432141 86.2730664,15.8268847 85.3049004,15.8268847 L85.3049004,15.8268847 L76.8659909,15.8268847 C75.5225589,15.8268847 74.4486268,16.8714494 74.4486268,18.1778965 C74.4486268,19.4833553 75.5225589,20.52792 76.8659909,20.52792 L76.8659909,20.52792 L82.4573532,20.52792 C85.7350834,20.52792 88.3690645,23.0864612 88.3690645,26.27352 C88.3690645,29.4072141 85.7900004,31.9143671 82.6709192,32.0181318 L82.6709192,32.0181318 L72.7278947,32.0181318 C71.7597287,32.0181318 70.9542796,31.2354494 70.9542796,30.2946494 C70.9542796,29.3548376 71.7597287,28.5711671 72.7278947,28.5711671 L72.7278947,28.5711671 L82.4573532,28.5711671 C83.8007853,28.5711671 84.8747174,27.5275906 84.8747174,26.2211435 C84.8747174,24.9156847 83.8007853,23.8701318 82.4573532,23.8701318 L82.4573532,23.8701318 L76.8659909,23.8701318 C73.5882608,23.8701318 70.9542796,21.3115906 70.9542796,18.12552 C70.9542796,14.9384612 73.5882608,12.3789318 76.8659909,12.3789318 L76.8659909,12.3789318 Z M105.140405,12.3275435 C106.107555,12.3275435 106.914021,13.1112141 106.914021,14.0510259 C106.914021,14.9908376 106.107555,15.7745082 105.140405,15.7745082 L105.140405,15.7745082 L99.3354772,15.7745082 C95.94893,15.7745082 94.2820979,17.18472 93.9058149,20.4755435 L93.9058149,20.4755435 L104.549539,20.4755435 C105.516688,20.4755435 106.323155,21.2592141 106.323155,22.1990259 C106.323155,23.1388376 105.516688,23.9225082 104.549539,23.9225082 L104.549539,23.9225082 L93.9058149,23.9225082 C94.3359979,27.2133318 95.94893,28.6235435 99.3354772,28.6235435 L99.3354772,28.6235435 L105.140405,28.6235435 C106.107555,28.6235435 106.914021,29.4072141 106.860121,30.2432612 C106.860121,31.1830729 106.053655,31.9667435 105.086505,31.9667435 L105.086505,31.9667435 L99.3354772,31.9667435 C95.196364,31.9667435 90.3046847,30.2432612 90.3046847,22.1466494 C90.3046847,14.0510259 95.249247,12.3275435 99.3354772,12.3275435 L99.3354772,12.3275435 Z M42.4647736,23.9230024 L34.0797642,23.9230024 L34.0797642,28.6230494 L42.4108736,28.6230494 C43.7553226,28.6230494 44.8302717,27.5794729 44.8302717,26.2740141 C44.8302717,24.9675671 43.8082057,23.9230024 42.4647736,23.9230024 L42.4647736,23.9230024 Z M59.7200958,16.7665976 C59.5583958,16.7665976 59.4505958,16.8723388 59.3966958,16.9761035 L59.3966958,16.9761035 L56.7627147,23.5043859 C56.6559317,23.7662682 56.8166147,23.9747859 57.0322147,24.0281506 L57.0322147,24.0281506 L62.354077,24.0281506 C62.567643,23.9747859 62.73036,23.7138918 62.67646,23.5043859 L62.67646,23.5043859 L60.0424789,16.9761035 C59.9875619,16.8723388 59.8807789,16.7665976 59.7200958,16.7665976 Z M42.1423906,15.8263906 L34.0797642,15.8263906 L34.0797642,20.5274259 L42.1962906,20.5274259 C43.4868396,20.5274259 44.5617887,19.4828612 44.5617887,18.1774024 C44.5617887,16.8719435 43.4868396,15.8263906 42.1423906,15.8263906 L42.1423906,15.8263906 Z M49.8824306,2.55962824 C50.5282136,2.55962824 51.0651796,2.76814588 51.4953626,3.23854588 C51.9255457,3.70894588 52.1401287,4.33548706 52.1401287,5.11915765 C52.1401287,6.00659294 51.8716457,6.73887529 51.3346796,7.31304 C50.7966966,7.88720471 50.1519306,8.14809882 49.4522475,8.14809882 C48.9691815,8.14809882 48.5928985,8.04433412 48.2166155,7.83482824 L48.2166155,10.3419812 L46.9260664,10.3419812 L46.9260664,2.66438118 L47.9481325,2.66438118 L48.1088155,3.44805176 C48.5928985,2.87388706 49.1847815,2.55962824 49.8824306,2.55962824 Z M76.4897079,2.66438118 C77.2432909,2.66438118 77.780257,2.87388706 78.10264,3.23854588 C78.42604,3.60419294 78.586723,4.12696941 78.586723,4.80588706 L78.586723,6.63313412 L78.693506,8.04433412 L77.565674,8.04433412 L77.565674,8.09671059 L77.403974,7.46918118 L77.350074,7.46918118 C77.350074,7.46918118 77.296174,7.52254588 77.296174,7.57393412 L77.0815909,7.78245176 C76.9737909,7.88720471 76.8659909,7.93958118 76.7053079,7.99195765 C76.5975079,8.04433412 76.4368249,8.09671059 76.2222419,8.20047529 C76.0066419,8.25285176 75.7920589,8.30522824 75.5764589,8.30522824 C75.0923758,8.30522824 74.7160928,8.14809882 74.3937098,7.88720471 C74.0713268,7.62631059 73.9096268,7.26066353 73.9096268,6.79026353 C73.9096268,6.32085176 74.0713268,5.90282824 74.4486268,5.64094588 C74.7699928,5.32767529 75.2540758,5.17153412 75.8988419,5.06678118 L77.1893909,4.90965176 L77.1893909,4.70113412 C77.1893909,4.33548706 77.1354909,4.07360471 76.9737909,3.91746353 C76.8131079,3.76132235 76.5436079,3.70894588 76.2222419,3.70894588 C76.0605419,3.70894588 75.8459589,3.76132235 75.5764589,3.81369882 C75.3079758,3.86508706 75.1462758,3.96984 74.9855928,4.02221647 L74.7699928,4.12696941 L74.3398098,3.23854588 C74.3937098,3.18616941 74.5015098,3.13379294 74.6632098,3.08141647 C74.7699928,3.03002824 75.0394928,2.92527529 75.4157758,2.82052235 C75.7920589,2.71576941 76.1673249,2.66438118 76.4897079,2.66438118 Z M94.9264572,2.55952941 C95.5722402,2.55952941 96.1092062,2.76804706 96.5393892,3.23844706 C96.9156723,3.65647059 97.1312723,4.28301176 97.1312723,5.01529412 L97.0773723,5.64084706 L93.7447251,5.64084706 C93.7986251,6.11124706 93.9593081,6.47689412 94.2827081,6.73877647 C94.6050911,6.99868235 95.0891742,7.1568 95.7329232,7.1568 C96.1631062,7.10442353 96.5393892,7.05105882 96.9156723,6.94729412 L97.0773723,7.88710588 C96.4865062,8.09661176 95.8956402,8.20037647 95.3566402,8.20037647 C94.3894911,8.20037647 93.6379421,7.94047059 93.1528421,7.41670588 C92.615876,6.89491765 92.347393,6.26837647 92.347393,5.43232941 C92.347393,4.54489412 92.561976,3.86597647 93.0460591,3.3432 C93.5291251,2.82042353 94.1749081,2.55952941 94.9264572,2.55952941 Z M55.4198928,2.61220235 C56.2263589,2.61220235 56.9240079,2.87309647 57.4080909,3.34349647 C57.946074,3.86528471 58.214557,4.54519059 58.214557,5.38024941 C58.214557,6.21530824 57.946074,6.89521412 57.4080909,7.41700235 C56.9240079,7.88740235 56.2263589,8.20067294 55.4198928,8.20067294 C54.6134268,8.20067294 53.9686608,7.93977882 53.4306777,7.41700235 C52.8926947,6.89521412 52.6252287,6.21530824 52.6252287,5.38024941 C52.6252287,4.54519059 52.8926947,3.91766118 53.4306777,3.39587294 C53.9686608,2.87309647 54.6134268,2.61220235 55.4198928,2.61220235 Z M34.1336642,0.836343529 C34.9930132,0.836343529 35.7465962,1.09723765 36.3913623,1.56763765 L35.9072792,2.40269647 C35.3164132,2.08942588 34.7794472,1.87992 34.1875642,1.87992 C33.5427981,1.87992 33.0587151,2.14180235 32.6824321,2.61220235 C32.3061491,3.08161412 32.145466,3.76152 32.145466,4.54519059 C32.145466,5.38024941 32.3600491,6.00679059 32.7363321,6.47719059 C33.1126151,6.94660235 33.6495811,7.15610824 34.2404472,7.15610824 C34.6706302,7.15610824 35.0469132,7.05135529 35.4231962,6.89521412 L35.4231962,5.48500235 L34.2404472,5.48500235 L34.2404472,4.43944941 L36.7676453,4.43944941 L36.7676453,7.62650824 C35.9072792,7.99215529 35.1008132,8.20067294 34.2943472,8.20067294 C33.1665151,8.20067294 32.3061491,7.88740235 31.715283,7.20848471 C31.1234,6.58095529 30.8,5.69352 30.8,4.59756706 C30.8,3.49963765 31.0695,2.55982588 31.660366,1.87992 C32.2522491,1.20199059 33.0587151,0.836343529 34.1336642,0.836343529 Z M88.1007849,2.55982588 C88.4241849,2.55982588 88.7455509,2.61220235 89.067934,2.76834353 C89.391334,2.87309647 89.6588,3.08161412 89.8744,3.23874353 L89.337434,4.07380235 C88.9072509,3.76152 88.5309679,3.60439059 88.1546849,3.60439059 C87.6706019,3.60439059 87.2943189,3.76152 87.0258358,4.07380235 C86.7573528,4.38806118 86.5956528,4.85747294 86.5956528,5.38024941 C86.5956528,5.90302588 86.7034528,6.32104941 86.9719358,6.63333176 C87.2404189,6.94660235 87.5638189,7.10472 88.0468849,7.10472 C88.4770679,7.10472 88.9072509,6.94660235 89.337434,6.58095529 L89.8744,7.36462588 C89.337434,7.93977882 88.6916509,8.20067294 87.9390849,8.20067294 C87.1875358,8.20067294 86.5417528,7.93977882 86.0576698,7.46937882 C85.5746038,6.99897882 85.3051038,6.32104941 85.3051038,5.43262588 C85.3051038,4.59756706 85.5746038,3.86528471 86.0576698,3.34349647 C86.5417528,2.82072 87.2404189,2.55982588 88.1007849,2.55982588 Z M42.2505974,2.66408471 L42.2505974,6.11104941 C42.2505974,6.84234353 42.5719634,7.20897882 43.2177464,7.20897882 C43.5401294,7.20897882 43.8625125,7.05086118 44.1848955,6.73857882 C44.5082955,6.42530824 44.6689785,6.00728471 44.6689785,5.53688471 L44.6689785,2.71646118 L45.9585106,2.71646118 L45.9585106,8.09641412 L44.9913615,8.09641412 L44.8306785,7.31274353 L44.7767785,7.31274353 C44.7218615,7.36512 44.6689785,7.46888471 44.5611785,7.57462588 C44.4543955,7.67839059 44.2387955,7.78314353 43.9164125,7.94027294 C43.5940294,8.09641412 43.2716464,8.20017882 42.9482464,8.20017882 C42.3573804,8.20017882 41.8743143,8.04403765 41.4980313,7.67839059 C41.1746313,7.31274353 40.9600483,6.84234353 40.9600483,6.11104941 L40.9600483,2.66408471 L42.2505974,2.66408471 Z M104.119763,2.61220235 C104.925212,2.61220235 105.623878,2.87309647 106.107961,3.34349647 C106.644927,3.86528471 106.914427,4.54519059 106.914427,5.38024941 C106.914427,6.21530824 106.644927,6.89521412 106.107961,7.41700235 C105.623878,7.88740235 104.925212,8.20067294 104.119763,8.20067294 C103.313297,8.20067294 102.667514,7.93977882 102.130548,7.41700235 C101.592565,6.89521412 101.324082,6.21530824 101.324082,5.38024941 C101.324082,4.54519059 101.592565,3.91766118 102.130548,3.39587294 C102.667514,2.87309647 103.313297,2.61220235 104.119763,2.61220235 Z M65.4713275,0.940602353 L65.4713275,1.98516706 L62.7834464,1.98516706 L62.7834464,3.81340235 L65.4174275,3.81340235 L65.4174275,4.80559059 L62.7834464,4.80559059 L62.7834464,8.09641412 L61.4400143,8.09641412 L61.4400143,0.940602353 L65.4713275,0.940602353 Z M101.216791,2.55933176 L101.216791,3.81340235 C101.055091,3.76102588 100.840508,3.76102588 100.678808,3.76102588 C100.249642,3.76102588 99.9262415,3.91716706 99.7655585,4.17904941 C99.6038585,4.43994353 99.4960585,4.90935529 99.4960585,5.48450824 L99.4960585,8.04403765 L98.1526264,8.04403765 L98.1526264,2.66408471 L99.1736755,2.66408471 L99.3353755,3.44775529 C99.6038585,3.13448471 99.8723415,2.92596706 100.140825,2.76784941 C100.410325,2.61170824 100.786608,2.55933176 101.216791,2.55933176 Z M67.4058291,2.66428235 L67.4058291,8.04423529 L66.11528,8.04423529 L66.11528,2.66428235 L67.4058291,2.66428235 Z M40.5841721,2.55933176 L40.5841721,3.81340235 C40.4224721,3.76102588 40.2078891,3.76102588 40.0461891,3.76102588 C39.617023,3.76102588 39.293623,3.91716706 39.13294,4.17904941 C38.97124,4.43994353 38.86344,4.90935529 38.86344,5.48450824 L38.86344,8.04403765 L37.5200079,8.04403765 L37.5200079,2.66408471 L38.541057,2.66408471 L38.702757,3.44775529 C38.97124,3.13448471 39.239723,2.92596706 39.508206,2.76784941 C39.777706,2.61170824 40.1539891,2.55933176 40.5841721,2.55933176 Z M91.7564253,2.66428235 L91.7564253,8.04423529 L90.4658762,8.04423529 L90.4658762,2.66428235 L91.7564253,2.66428235 Z M82.5103379,2.56022118 C83.90767,2.56022118 84.553453,3.23815059 84.553453,4.64935059 L84.553453,8.04393882 L83.262904,8.04393882 L83.262904,4.80549176 C83.262904,4.33509176 83.1561209,4.02182118 82.9944209,3.81330353 C82.8337379,3.60379765 82.5642379,3.50003294 82.2418549,3.50003294 C81.8655719,3.50003294 81.5970889,3.65617412 81.2736889,3.96944471 C81.0062228,4.28370353 80.8445228,4.70172706 80.8445228,5.22351529 L80.8445228,8.04393882 L79.5539738,8.04393882 L79.5539738,2.66398588 L80.5760398,2.66398588 L80.6828228,3.39528 L80.7367228,3.39528 C81.1669058,2.82012706 81.7577719,2.56022118 82.5103379,2.56022118 Z M71.2758491,2.56022118 C72.6731811,2.56022118 73.3189642,3.23815059 73.3189642,4.64935059 L73.3189642,8.04393882 L72.0284151,8.04393882 L72.0284151,4.80549176 C72.0284151,4.33509176 71.9755321,4.02182118 71.7599321,3.81330353 C71.5992491,3.60379765 71.3297491,3.50003294 71.008383,3.50003294 C70.631083,3.50003294 70.3626,3.65617412 70.0392,3.96944471 C69.771734,4.28370353 69.610034,4.70172706 69.610034,5.22351529 L69.610034,8.04393882 L68.3194849,8.04393882 L68.3194849,2.66398588 L69.3415509,2.66398588 L69.448334,3.39528 L69.502234,3.39528 C69.932417,2.82012706 70.5243,2.56022118 71.2758491,2.56022118 Z M77.296174,5.64094588 L76.3290249,5.74569882 C75.6832419,5.79807529 75.3618758,6.11134588 75.3618758,6.58174588 C75.3079758,7.05115765 75.5764589,7.26066353 76.1673249,7.26066353 C76.4368249,7.26066353 76.6524249,7.15689882 76.9198909,6.99878118 C77.1354909,6.79026353 77.296174,6.63313412 77.296174,6.47699294 L77.296174,5.64094588 Z M49.5061475,3.55181647 C49.1298645,3.55181647 48.8613815,3.70894588 48.5389985,4.07360471 C48.2705155,4.44024 48.1088155,4.90965176 48.1088155,5.48480471 L48.1088155,6.79026353 C48.5928985,7.10452235 48.9691815,7.26066353 49.3454645,7.26066353 C49.7756475,7.26066353 50.0980306,7.05115765 50.3665136,6.68649882 C50.6360136,6.32085176 50.7427966,5.85045176 50.7427966,5.27529882 C50.7427966,5.01539294 50.6888966,4.75351059 50.6360136,4.49162824 C50.5821136,4.23172235 50.4743136,4.02221647 50.2587136,3.86508706 C50.0441306,3.65656941 49.8295475,3.55181647 49.5061475,3.55181647 Z M55.4198928,3.55201412 C54.9358098,3.55201412 54.6134268,3.76152 54.3439268,4.12716706 C54.0754438,4.49182588 53.9686608,4.90984941 53.9686608,5.38024941 C53.9686608,5.79728471 54.0754438,6.21530824 54.3439268,6.63333176 C54.6134268,6.99897882 54.9358098,7.20848471 55.4198928,7.20848471 C55.9029589,7.20848471 56.2792419,6.99897882 56.4938249,6.63333176 C56.7633249,6.26867294 56.8701079,5.85064941 56.8701079,5.38024941 C56.8701079,4.90984941 56.7633249,4.49182588 56.4938249,4.12716706 C56.2263589,3.76152 55.9029589,3.55201412 55.4198928,3.55201412 Z M94.9813742,3.55171765 C94.7118742,3.55171765 94.4433911,3.65647059 94.2288081,3.86597647 C94.0132081,4.02211765 93.9054081,4.33538824 93.7986251,4.75341176 L96.0024232,4.75341176 C96.0024232,3.96974118 95.6261402,3.55171765 94.9813742,3.55171765 Z M66.761063,9.9475983e-15 C66.975646,9.9475983e-15 67.191246,0.0523764706 67.2980291,0.208517647 C67.460746,0.366635294 67.5136291,0.522776471 67.5136291,0.783670588 C67.5136291,0.992188235 67.460746,1.14931765 67.2980291,1.30644706 C67.137346,1.35783529 66.975646,1.46258824 66.761063,1.46258824 C66.545463,1.46258824 66.33088,1.41021176 66.170197,1.25407059 C66.008497,1.09694118 65.954597,0.9408 65.954597,0.732282353 C65.954597,0.522776471 66.008497,0.366635294 66.170197,0.208517647 C66.33088,0.0523764706 66.49258,9.9475983e-15 66.761063,9.9475983e-15 Z M91.1116592,9.9475983e-15 C91.3252253,9.9475983e-15 91.5408253,0.0523764706 91.7025253,0.208517647 C91.8632083,0.366635294 91.9181253,0.522776471 91.9181253,0.783670588 C91.9181253,0.992188235 91.8632083,1.14931765 91.7025253,1.30644706 C91.4879423,1.35783529 91.3252253,1.46258824 91.1116592,1.46258824 C90.8960592,1.46258824 90.6814762,1.41021176 90.5197762,1.25407059 C90.3580762,1.09694118 90.3051932,0.9408 90.3051932,0.732282353 C90.3051932,0.522776471 90.3580762,0.366635294 90.5197762,0.208517647 C90.6814762,0.0523764706 90.8421592,9.9475983e-15 91.1116592,9.9475983e-15 Z" id="Fill-44"></path>
                    </g>
                </g>
            </g>
        </g>
    </g>
</svg>