<?xml version="1.0" encoding="UTF-8"?>
<svg width="130px" height="19px" viewBox="0 0 130 19" version="1.1" xmlns="http://www.w3.org/2000/svg" xmlns:xlink="http://www.w3.org/1999/xlink">
    <!-- Generator: Sketch 64 (93537) - https://sketch.com -->
    <title>Logo / Contpaq i</title>
    <desc>Created with Sketch.</desc>
    <g id="Desktop" stroke="none" stroke-width="1" fill="none" fill-rule="evenodd">
        <g id="Home_Todas-Copy" transform="translate(-775.000000, -1279.000000)">
            <g id="Logo-/-Contpaq-i" transform="translate(770.000000, 1268.000000)">
                <g id="Contpaq-i" stroke-width="1" fill-rule="evenodd" transform="translate(5.600000, 11.200000)" fill="#FFFFFF">
                    <path d="M127.8454,7.48643778 C127.8454,7.45377111 127.837543,7.42328222 127.824074,7.39606 C127.810606,7.36883778 127.787035,7.34597111 127.754485,7.32854889 C127.726424,7.31330444 127.692752,7.30350444 127.656835,7.29806 C127.620918,7.29261556 127.573776,7.29043778 127.517656,7.29043778 L127.397557,7.29043778 L127.397557,7.73470444 L127.489595,7.73470444 C127.546838,7.73470444 127.599592,7.73034889 127.648978,7.72054889 C127.698364,7.71183778 127.736526,7.69550444 127.764587,7.67481556 C127.791524,7.65412667 127.811728,7.63017111 127.825197,7.59968222 C127.838666,7.56919333 127.8454,7.53108222 127.8454,7.48643778 L127.8454,7.48643778 Z M128.515481,8.59057111 L128.023864,8.59057111 L127.551328,8.01346 L127.397557,8.01346 L127.397557,8.59057111 L127.013692,8.59057111 L127.013692,7.01821556 L127.604081,7.01821556 C127.712956,7.01821556 127.800504,7.02257111 127.867849,7.03128222 C127.934071,7.03999333 128.000293,7.06177111 128.064271,7.09770444 C128.13835,7.13908222 128.191104,7.18808222 128.223654,7.24361556 C128.255081,7.29914889 128.271918,7.37101556 128.271918,7.45703778 C128.271918,7.57354889 128.24049,7.66828222 128.17539,7.74123778 C128.11029,7.81528222 128.027231,7.87190444 127.925092,7.91328222 L128.515481,8.59057111 Z M128.901592,7.84250444 C128.901592,7.50277111 128.778126,7.21094889 128.530073,6.96703778 C128.283142,6.72421556 127.98458,6.60226 127.634387,6.60226 C127.284193,6.60226 126.984509,6.72421556 126.737578,6.96703778 C126.489524,7.21094889 126.366059,7.50277111 126.366059,7.84250444 C126.366059,8.18223778 126.489524,8.47297111 126.737578,8.71688222 C126.984509,8.96079333 127.284193,9.08166 127.634387,9.08166 C127.98458,9.08166 128.283142,8.96079333 128.530073,8.71688222 C128.778126,8.47297111 128.901592,8.18223778 128.901592,7.84250444 L128.901592,7.84250444 Z M109.637267,2.42103556 C112.045967,3.51536889 113.381639,5.39805778 113.729588,7.92101333 C114.037129,10.1445244 113.691426,12.2841911 112.570134,14.27468 C112.479219,14.4358356 112.506157,14.5327467 112.639724,14.6340133 C113.443372,15.2503244 113.719486,16.06808 113.63755,17.0371911 C113.603877,17.4509689 113.620714,17.87128 113.636427,18.2872356 C113.646529,18.5257022 113.558981,18.5975689 113.319907,18.5823244 C113.002264,18.5638133 112.682376,18.5779689 112.362488,18.5779689 C112.129026,18.5779689 111.895564,18.5714356 111.663224,18.5790578 C110.919064,18.6073689 110.287145,18.3743467 109.797772,17.8233689 C109.560943,17.55768 109.3735,17.5021467 109.000858,17.6785467 C105.827795,19.1757689 102.63565,19.1757689 99.5658481,17.4760133 C97.5275447,16.3468356 96.4803326,14.5055244 96.272686,12.2330133 C96.0919774,10.2403467 96.3400309,8.31301333 97.281736,6.50872444 C98.6959774,3.79956889 101.028353,2.30343556 104.06336,1.79492444 C105.974831,1.47479111 107.855996,1.60981333 109.637267,2.42103556 Z M29.4339548,2.41232444 C31.8572462,3.50992444 33.1671031,5.40241333 33.5554583,7.93625778 C33.6239255,8.38488 33.6373945,8.83676889 33.6430066,9.45634667 C33.6138238,11.6417467 33.0032307,13.8075467 31.4228721,15.6455911 C29.9042462,17.41068 27.9321652,18.3732578 25.5964221,18.6563689 C23.8218859,18.87088 22.0900014,18.6955689 20.4400531,18.0106578 C17.8147272,16.92068 16.3589566,14.9748356 16.0895772,12.2199467 C15.871829,9.99861333 16.2175324,7.86983556 17.4173928,5.93161333 C18.8888772,3.55456889 21.112379,2.24245778 23.8925979,1.79165778 C25.7939669,1.48350222 27.6627859,1.61090222 29.4339548,2.41232444 Z M16.3192231,2.37944 C15.8175041,3.31152889 15.3348662,4.21748444 14.8454938,5.12017333 C14.5772369,5.61561778 14.5749921,5.60690667 13.996949,5.47515111 C12.3728162,5.10928444 10.7318472,4.90675111 9.07291966,5.20292889 C6.65411793,5.63195111 4.87396966,7.34804 4.36663862,9.68806222 C4.03664897,11.2059733 4.25664207,12.6073733 5.33864897,13.8007956 C6.27474207,14.8308844 7.5138869,15.2217956 8.89108862,15.2609956 C10.7441938,15.3143511 12.9598386,14.7111067 14.5637679,13.7093289 C14.7904955,14.9125511 14.6737645,16.0297511 14.0429679,17.0522178 C13.7455283,17.5367733 13.2258507,17.7981067 12.7028059,18.0158844 C11.21673,18.6343733 9.64871793,18.7987956 8.05376793,18.7127733 C6.48463345,18.6289289 4.96825241,18.30444 3.58992828,17.5313289 C1.37428345,16.2910844 0.206973103,14.3953289 0.0307541379,11.9496844 C-0.158933793,9.34288444 0.535840345,6.97237333 2.29803,4.95357333 C3.72686276,3.31588444 5.60466103,2.39795111 7.72714552,1.95041778 C10.611749,1.34281778 13.4581903,1.67819556 16.3192231,2.37944 Z M92.3059634,1.81947382 C92.5057531,1.81626667 92.500141,1.94802222 92.5259566,2.07977778 C92.8121721,3.60095556 93.1039997,5.12104444 93.3913376,6.64222222 C94.1197841,10.5034222 94.8426186,14.3646222 95.5789221,18.2236444 C95.6339203,18.5111111 95.5800445,18.5960444 95.2713807,18.5851556 C94.6832359,18.5622889 94.0928462,18.5786222 93.503579,18.5786222 C92.8896186,18.5786222 92.2745359,18.5720889 91.6605755,18.5818889 C91.4764997,18.5851556 91.4113997,18.5350667 91.3911962,18.3488667 C91.2609962,17.2262222 91.1061031,16.1046667 90.9815152,14.9809333 C90.9556997,14.7566222 90.872641,14.7130667 90.6627497,14.7130667 C88.9802514,14.7206889 87.2977531,14.7228667 85.6152548,14.7119778 C85.3896497,14.7098 85.2942445,14.798 85.2066962,14.9776667 C84.6578359,16.0937778 84.0910169,17.2000889 83.548891,18.3194738 C83.4478738,18.5252667 83.3322652,18.5862444 83.1055376,18.5840667 C81.9763893,18.5720889 80.8461186,18.5699111 79.7169703,18.5840667 C79.4071841,18.5873333 79.33086,18.5470444 79.4902428,18.2443333 C80.9437686,15.5079556 82.3838255,12.7639556 83.8306169,10.0221333 C84.7566083,8.26575556 85.6893341,6.51264444 86.6097134,4.753 C87.3325479,3.3712 88.3719031,2.36397778 89.961241,1.96653333 C90.7357066,1.7738 91.5225186,1.8326 92.3059634,1.81947382 Z M69.3815597,1.8142473 C69.6778769,1.81212889 69.7564459,1.86875111 69.6902234,2.16928444 C69.5813493,2.66799556 69.5386976,3.18086222 69.4522717,3.68501778 C69.3041131,4.53979556 68.6497459,5.07552889 67.7664062,5.07552889 C66.4520597,5.07770667 65.1388355,5.08206222 63.824489,5.07117333 C63.5820476,5.06899556 63.5001114,5.13215111 63.4630717,5.37824 C62.9680872,8.70915111 62.457389,12.0389733 61.9511803,15.3687956 C61.8030217,16.3455289 61.6458838,17.3200844 61.5156838,18.3000844 C61.4853786,18.5374622 61.3899734,18.5842844 61.1666131,18.5831956 C60.086851,18.5733956 59.0059666,18.5657733 57.9262045,18.5853733 C57.6040717,18.5919067 57.5344821,18.4971733 57.580501,18.20644 C57.7937597,16.8779956 57.9913045,15.5473733 58.1967062,14.2189289 C58.5816941,11.7133956 58.9655597,9.20677333 59.35167,6.70124 C59.41677,6.27875111 59.4773803,5.85408444 59.5570717,5.43268444 C59.6042131,5.17788444 59.5716631,5.06464 59.2472855,5.06790667 C57.5906028,5.08641778 55.9327976,5.06790667 54.2761148,5.08424 C53.98092,5.08750667 53.9247993,5.00475111 53.9730631,4.74668444 C54.0628562,4.26648444 54.1257114,3.78301778 54.2054028,3.30064 C54.3647855,2.34786222 55.0023166,1.82192889 56.0102441,1.82084 C58.2326234,1.81757333 60.4561252,1.81975111 62.6773821,1.81975111 C64.9121079,1.81975111 67.1468338,1.82519556 69.3815597,1.8142473 Z M71.7494038,1.81566138 C72.8067176,1.82552222 73.8617866,1.82007778 75.099809,1.82007778 C76.1324297,1.84621111 77.3480038,1.77216667 78.5602107,1.92243333 C81.219209,2.25236667 82.846709,3.94885556 82.9376245,6.55347778 C82.9948676,8.19443333 82.60539,9.69818889 81.3482866,10.8916111 C80.3852555,11.8051889 79.1988641,12.2396556 77.8800279,12.3681444 C76.6184348,12.4922778 75.3523521,12.4127889 74.0885141,12.4236778 C73.8314814,12.4247667 73.7405659,12.4803 73.7024038,12.7470778 C73.504859,14.1375889 73.2882331,15.5259222 73.0581383,16.9109889 C72.8897762,17.9160333 72.0749038,18.5726333 71.0276917,18.5769889 C70.4260779,18.5802556 69.8244641,18.5726333 69.2228503,18.5813444 C69.0095917,18.5857 68.9254107,18.5639222 68.9646952,18.3113 C69.6673262,13.7107444 70.3587331,9.10692222 71.0523848,4.50527778 C71.1736055,3.70385556 71.3049279,2.9057 71.4070676,2.10318889 C71.4362503,1.86907778 71.5260434,1.81354444 71.7494038,1.81566138 Z M117.831687,18.0671319 C117.893429,17.4429982 118.026861,16.8283422 118.119348,16.2081111 C118.516683,13.573 118.940955,10.9400667 119.334922,8.30386667 C119.512264,7.11697778 120.425908,6.29377778 121.654952,6.2818 C122.538291,6.27308889 123.422753,6.28397778 124.306093,6.27737921 C124.491291,6.27635556 124.605777,6.28615556 124.568738,6.52244444 C124.334153,8.02728889 124.111915,9.53431111 123.884065,11.0413333 L123.884178,11.0411156 C123.743876,12.2878933 123.573269,13.0196267 123.447559,13.9615156 C123.328583,14.86856 123.175934,15.7712489 123.033388,16.6750267 C122.868393,17.7279822 121.974952,18.5359378 120.873864,18.5718711 C119.88165,18.6045378 117.832122,18.5522711 117.800695,18.5370267 Z M36.8655688,1.79067778 C39.1979447,1.88214444 41.002786,2.86105556 42.2419309,4.78403333 C43.8447378,7.2765 45.4329533,9.77767778 47.0279033,12.2755889 C47.0716774,12.3452778 47.1233084,12.4084333 47.233305,12.5587 C47.3982998,11.4752556 47.5509481,10.4930778 47.6991067,9.50763333 C48.0717481,7.02496667 48.4455119,4.54121111 48.8125412,2.05636667 C48.8406016,1.86907778 48.9012119,1.79285556 49.1099809,1.79394444 C50.2503533,1.80374444 51.3929705,1.80156667 52.5355878,1.79612222 C52.7308878,1.79503333 52.780274,1.84185556 52.7499688,2.04221111 C52.3054929,4.93647778 51.8711188,7.83183333 51.4311326,10.7261 C51.0506343,13.2327222 50.6622791,15.7382556 50.2952498,18.2470556 C50.2537205,18.5247222 50.1414791,18.5704556 49.8945481,18.5606556 C47.5924774,18.4637444 45.801105,17.4946333 44.5765516,15.5988778 C42.9681326,13.1096778 41.387774,10.6030556 39.7917016,8.10623333 C39.7367033,8.02238889 39.7153774,7.90478889 39.5559947,7.86014444 C39.4471205,8.55485556 39.3382464,9.24085556 39.2338619,9.92794444 C38.8107119,12.7176778 38.3875619,15.5063222 37.970024,18.2960556 C37.943086,18.4779 37.8835981,18.5639222 37.6714619,18.5618515 C36.543436,18.5519444 35.4131653,18.5519444 34.2828947,18.5618515 C34.037086,18.5639222 34.0146378,18.4877 34.0483102,18.2666556 C34.6959429,14.0787889 35.333474,9.88983333 35.9721274,5.69978889 C36.1550809,4.50092222 36.3346671,3.29987778 36.5075188,2.09992222 C36.5400688,1.88105556 36.5950671,1.78087778 36.8655688,1.79067778 Z M102.525653,6.14394667 C100.746627,7.65641333 100.049608,9.60116889 100.35266,11.8486356 C100.642243,13.98068 102.294436,15.3319911 104.617833,15.33308 C105.715553,15.3450578 106.827865,14.96068 107.752734,14.13748 C109.379112,12.6892578 109.931339,10.8468578 109.707979,8.76925778 C109.554208,7.34172444 108.895352,6.18096889 107.545088,5.48299111 C106.024217,4.69572444 103.915202,4.96032444 102.525653,6.14394667 Z M22.6837583,5.88588 C20.6308634,7.39072444 19.8328272,9.45743556 20.1729186,11.8878356 C20.4703583,14.0253244 22.1146945,15.3341689 24.2730962,15.3319911 C25.5425462,15.3407022 26.66496,14.9497911 27.595441,14.1124356 C29.1802893,12.6838133 29.7212928,10.87408 29.5338497,8.83568 C29.418241,7.58563556 28.8929514,6.51634667 27.823291,5.76065778 C26.4023152,4.75670222 24.1844255,4.78501333 22.6837583,5.88588 Z M89.7513497,5.89742222 C88.6828117,8.03708889 87.6131514,10.1767556 86.5232876,12.3567111 C87.8948772,12.3567111 89.2036117,12.3534444 90.5134686,12.3610748 C90.7525428,12.3621556 90.7188703,12.2532667 90.6964221,12.0932 C90.4831634,10.5861778 90.2800066,9.07806667 90.0689928,7.56995556 C89.9915462,7.01462222 89.9051203,6.45928889 89.8220617,5.90395556 C89.798491,5.90177778 89.7749203,5.8996 89.7513497,5.89742222 Z M75.18399,4.29838889 C75.0391986,4.3169 74.9808331,4.38223333 74.9639969,4.52705556 C74.9146107,4.91687778 74.8438986,5.30343333 74.7844107,5.69107778 C74.5778866,7.01952222 74.3803417,8.35014444 74.1603486,9.67641111 C74.1120848,9.97367778 74.2052452,10.0499 74.4925831,10.0259444 C74.7361469,10.0041667 74.9830779,10.0205 75.2805176,10.0205 C75.7036676,10.0009 76.179571,10.0618778 76.6476176,9.89527778 C78.1729779,9.34865556 79.0933572,7.75016667 78.8453038,6.09505556 C78.7162262,5.23374444 78.295321,4.62723333 77.410859,4.3855 C76.6790452,4.18623333 75.93264,4.20147778 75.18399,4.29838889 Z M127.634387,6.26361556 C128.083352,6.26361556 128.467218,6.41823778 128.784861,6.72639333 C129.102504,7.03454889 129.261887,7.40694889 129.261887,7.84250444 C129.261887,8.27806 129.102504,8.64937111 128.784861,8.95861556 C128.467218,9.26677111 128.083352,9.42030444 127.634387,9.42030444 C127.185421,9.42030444 126.801556,9.26677111 126.483912,8.95861556 C126.166269,8.64937111 126.006887,8.27806 126.006887,7.84250444 C126.006887,7.40694889 126.166269,7.03454889 126.483912,6.72639333 C126.801556,6.41823778 127.185421,6.26361556 127.634387,6.26361556 Z M122.691613,0.000432221377 C124.06657,-0.00174222222 125.163168,1.06319111 125.163168,2.40034667 C125.162046,3.74403556 124.076672,4.79263556 122.688246,4.79046116 C121.329003,4.78828 120.230159,3.72988 120.225639,2.41559111 C120.218935,1.08823556 121.32788,0.00152444444 122.691613,0.000432221377 Z" id="Fill-21"></path>
                </g>
                <rect id="Rectangle-Copy-5" x="0" y="0" width="140" height="42"></rect>
            </g>
        </g>
    </g>
</svg>