<?xml version="1.0" encoding="UTF-8"?>
<svg width="99px" height="41px" viewBox="0 0 99 41" version="1.1" xmlns="http://www.w3.org/2000/svg" xmlns:xlink="http://www.w3.org/1999/xlink">
    <!-- Generator: Sketch 64 (93537) - https://sketch.com -->
    <title>Logo / Copri</title>
    <desc>Created with Sketch.</desc>
    <g id="Desktop" stroke="none" stroke-width="1" fill="none" fill-rule="evenodd">
        <g id="Home_Todas-Copy" transform="translate(-791.000000, -1196.000000)" fill="#FFFFFF">
            <g id="Logo-/-Copri" transform="translate(770.000000, 1195.000000)">
                <path d="M21,1.4 L29.3440157,9.56236842 L29.3440157,32.8325789 L40.8565461,32.8325789 L40.8565461,41.09 L21,41.09 L21,1.4 Z M40.8571045,20.6879474 L49.2011202,28.8503158 L49.2011202,41.09 L40.8571045,41.09 L40.8571045,20.6879474 Z M62.8151229,20.8687684 C63.2439948,20.8687684 63.6918533,20.9096632 64.1575813,20.9903474 C64.6233094,21.0710316 65.070051,21.1959263 65.4989229,21.3639263 C65.926678,21.5319263 66.3298622,21.7408211 66.7073589,21.9895053 C67.0859724,22.2392947 67.4065094,22.5377158 67.6712038,22.8880842 L65.857433,24.3083474 C65.5045072,23.8341895 65.0443634,23.4893474 64.4781184,23.2716105 C63.9118735,23.0527684 63.3567971,22.9444526 62.8151229,22.9444526 C62.1226735,22.9444526 61.4938847,23.0682421 60.9265229,23.3180316 C60.3591611,23.5667158 59.8722128,23.9104526 59.4623274,24.3459263 C59.052442,24.7825053 58.7386061,25.2931368 58.5185858,25.8789263 C58.2963319,26.4647158 58.1868802,27.1002421 58.1868802,27.7855053 C58.1868802,28.5094526 58.2952151,29.1681895 58.5085342,29.7672421 C58.7218533,30.3651895 59.0278712,30.8791368 59.4243544,31.3101895 C59.8219544,31.7401368 60.2966173,32.0728211 60.8516937,32.3093474 C61.4056533,32.5469789 62.0277409,32.6663474 62.7201903,32.6663474 C63.4394443,32.6663474 64.0749342,32.5259789 64.6288937,32.2452421 C65.1828533,31.9645053 65.6307117,31.5942421 65.9713521,31.1322421 L67.8789387,32.4596632 C67.2858892,33.1957684 66.5621679,33.7660842 65.7055409,34.1706105 C64.8500308,34.5751368 63.8482128,34.7785053 62.7023207,34.7785053 C61.6569454,34.7785053 60.696451,34.6060842 59.8219544,34.2634526 C58.9463409,33.9208211 58.1935813,33.4411368 57.5636757,32.8244 C56.9337701,32.2065579 56.4423544,31.4715579 56.0905454,30.6182947 C55.7365027,29.7650316 55.5611566,28.8200316 55.5611566,27.7855053 C55.5611566,26.7266632 55.7465544,25.7695053 56.1184667,24.9162421 C56.4892622,24.0618737 56.9996645,23.3357158 57.6485566,22.7377684 C58.2963319,22.1398211 59.0624937,21.6789263 59.9436915,21.3539789 C60.8248892,21.0301368 61.7831499,20.8687684 62.8151229,20.8687684 Z M76.5201492,20.8682158 C77.5655245,20.8682158 78.5293694,21.0306895 79.4105672,21.3545316 C80.2928818,21.6794789 81.0534593,22.1403737 81.6967672,22.7383211 C82.3389582,23.3362684 82.8393088,24.0624263 83.1978189,24.9156895 C83.5574458,25.7700579 83.7372593,26.7261105 83.7372593,27.7860579 C83.7372593,28.8205842 83.5574458,29.7644789 83.1978189,30.6188474 C82.8393088,31.4721105 82.3389582,32.2071105 81.6967672,32.8249526 C81.0534593,33.4405842 80.2928818,33.9213737 79.4105672,34.2629 C78.5293694,34.6066368 77.5655245,34.7779526 76.5201492,34.7779526 C75.4870593,34.7779526 74.5332661,34.6066368 73.6576526,34.2629 C72.7820391,33.9213737 72.0270458,33.4405842 71.391556,32.8249526 C70.7549492,32.2071105 70.2568324,31.4721105 69.8983222,30.6188474 C69.5398121,29.7644789 69.3611155,28.8205842 69.3611155,27.7860579 C69.3611155,26.7261105 69.5398121,25.7700579 69.8983222,24.9156895 C70.2568324,24.0624263 70.7549492,23.3362684 71.391556,22.7383211 C72.0270458,22.1403737 72.7820391,21.6794789 73.6576526,21.3545316 C74.5332661,21.0306895 75.4870593,20.8682158 76.5201492,20.8682158 Z M90.9319207,21.2047684 C91.7003162,21.2047684 92.3927656,21.2732947 93.009269,21.4103474 C93.6268892,21.5474 94.156278,21.7717684 94.5963184,22.0834526 C95.0374757,22.3962421 95.3781162,22.7941368 95.6160061,23.2793474 C95.8561297,23.7667684 95.975633,24.3525579 95.975633,25.0378211 C95.975633,25.7728211 95.8371431,26.3906632 95.5601634,26.8880316 C95.2831836,27.3865053 94.9090375,27.7888211 94.4366083,28.0949789 C93.9641791,28.4000316 93.4124533,28.6210842 92.7825476,28.7570316 C92.1537589,28.8951895 91.4858802,28.9637158 90.7800285,28.9637158 L88.9483881,28.9637158 L88.9483881,34.4414 L86.5683724,34.4414 L86.5683724,21.2047684 L90.9319207,21.2047684 Z M113.582724,21.2052105 L113.582724,34.4418421 L111.202708,34.4418421 L111.202708,21.2052105 L113.582724,21.2052105 Z M103.089769,21.2054316 C103.719675,21.2054316 104.329477,21.2695368 104.922527,21.4010632 C105.514459,21.5325895 106.03938,21.7470105 106.499524,22.0465368 C106.959668,22.3449579 107.327113,22.7384316 107.604093,23.2236421 C107.881073,23.7099579 108.019562,24.3023789 108.019562,24.9998 C108.019562,25.9602737 107.745933,26.7428 107.198675,27.3462737 C106.651416,27.9508526 105.905358,28.3586947 104.959383,28.5709053 L108.529965,34.4409579 L105.658533,34.4409579 L102.56038,28.8328526 L100.822556,28.8328526 L100.822556,34.4409579 L98.44254,34.4409579 L98.44254,21.2054316 L103.089769,21.2054316 Z M76.5391357,22.9439 C75.8455694,22.9439 75.2201312,23.0676895 74.6594706,23.3174789 C74.0988099,23.5672684 73.616329,23.9099 73.2142616,24.3464789 C72.8099604,24.7819526 72.4994751,25.2925842 72.2794548,25.8783737 C72.0594346,26.4652684 71.9488661,27.1007947 71.9488661,27.7860579 C71.9488661,28.4967421 72.0594346,29.1466368 72.2794548,29.7401632 C72.4994751,30.3314789 72.813311,30.8465316 73.2243133,31.2820053 C73.6330818,31.7185842 74.1166796,32.0579 74.6784571,32.3010579 C75.2380009,32.5442158 75.8589717,32.6657947 76.5391357,32.6657947 C77.2192998,32.6657947 77.8425043,32.5442158 78.4087492,32.3010579 C78.976111,32.0579 79.4641762,31.7185842 79.8740616,31.2820053 C80.2828301,30.8465316 80.5977829,30.3314789 80.8178031,29.7401632 C81.0389402,29.1466368 81.1483919,28.4967421 81.1483919,27.7860579 C81.1483919,27.1007947 81.0389402,26.4652684 80.8178031,25.8783737 C80.5977829,25.2925842 80.2861807,24.7819526 79.8829964,24.3464789 C79.4798121,23.9099 78.9950975,23.5672684 78.4288526,23.3174789 C77.8614908,23.0676895 77.2315852,22.9439 76.5391357,22.9439 Z M90.685096,23.1865053 L88.9483881,23.1865053 L88.9483881,26.9819789 L90.6102667,26.9819789 C91.0011656,26.9819789 91.373078,26.9543474 91.724887,26.8979789 C92.076696,26.8416105 92.3927656,26.7421368 92.6697454,26.5984526 C92.9467252,26.4547684 93.1667454,26.2591368 93.3309229,26.0093474 C93.4939836,25.7606632 93.5766308,25.4368211 93.5766308,25.0378211 C93.5766308,24.6520842 93.4939836,24.3359789 93.3309229,24.0939263 C93.1667454,23.8507684 92.9500757,23.6606632 92.6797971,23.5225053 C92.4072847,23.3865579 92.1001499,23.2959263 91.7528083,23.2517158 C91.4065836,23.2086105 91.051424,23.1865053 90.685096,23.1865053 Z M102.976967,23.1871684 L100.822556,23.1871684 L100.822556,26.9074842 L102.768115,26.9074842 C103.108756,26.9074842 103.448279,26.8831684 103.78892,26.8323263 C104.128443,26.7825895 104.433344,26.6897474 104.70474,26.5526947 C104.976136,26.4156421 105.199506,26.2189053 105.374852,25.9635895 C105.551315,25.7071684 105.639547,25.3800105 105.639547,24.9821158 C105.639547,24.6206947 105.558016,24.3244842 105.394956,24.0934842 C105.230778,23.8624842 105.023043,23.6790105 104.770634,23.5419579 C104.518225,23.4049053 104.233428,23.3109579 103.910657,23.2612211 C103.59012,23.2114842 103.278518,23.1871684 102.976967,23.1871684 Z M117.47831,20.8679947 C117.766458,20.8679947 118.036737,20.9221526 118.289146,21.0315737 C118.543789,21.1398895 118.764926,21.2868895 118.954791,21.4714684 C119.143539,21.6560474 119.294315,21.8748895 119.403766,22.1246789 C119.513218,22.3766789 119.569061,22.6441526 119.569061,22.9282053 C119.569061,23.2111526 119.513218,23.4786263 119.403766,23.7262053 C119.294315,23.9748895 119.143539,24.1904158 118.954791,24.3749947 C118.764926,24.5595737 118.543789,24.7043632 118.289146,24.8104684 C118.036737,24.9154684 117.766458,24.9685211 117.47831,24.9685211 C117.191279,24.9685211 116.921,24.9154684 116.666357,24.8104684 C116.413948,24.7043632 116.191694,24.5595737 116.002946,24.3749947 C115.813081,24.1904158 115.663422,23.9748895 115.552854,23.7262053 C115.443402,23.4786263 115.388676,23.2111526 115.388676,22.9282053 C115.388676,22.6441526 115.443402,22.3766789 115.552854,22.1246789 C115.663422,21.8748895 115.813081,21.6560474 116.002946,21.4714684 C116.191694,21.2868895 116.413948,21.1398895 116.666357,21.0315737 C116.921,20.9221526 117.191279,20.8679947 117.47831,20.8679947 Z M117.47831,21.1852053 C117.233719,21.1852053 117.004764,21.2305211 116.791445,21.3222579 C116.577009,21.4128895 116.390494,21.5366789 116.231901,21.6936263 C116.072191,21.8516789 115.94822,22.0351526 115.855521,22.2473632 C115.763939,22.4595737 115.718148,22.6861526 115.718148,22.9282053 C115.718148,23.1647316 115.763939,23.3879947 115.855521,23.5991 C115.94822,23.8102053 116.072191,23.9969947 116.231901,24.1572579 C116.390494,24.3175211 116.577009,24.4435211 116.791445,24.5341526 C117.004764,24.6247842 117.233719,24.6701 117.47831,24.6701 C117.722901,24.6701 117.952973,24.6247842 118.166292,24.5341526 C118.379611,24.4435211 118.566126,24.3175211 118.725836,24.1572579 C118.884429,23.9969947 119.009517,23.8102053 119.101099,23.5991 C119.192681,23.3879947 119.238472,23.1647316 119.238472,22.9282053 C119.238472,22.6861526 119.192681,22.4595737 119.101099,22.2473632 C119.009517,22.0351526 118.884429,21.8516789 118.725836,21.6936263 C118.566126,21.5366789 118.379611,21.4128895 118.166292,21.3222579 C117.952973,21.2305211 117.722901,21.1852053 117.47831,21.1852053 Z M117.488362,21.7577316 C117.596697,21.7577316 117.705031,21.7698895 117.808899,21.7931 C117.911649,21.8185211 118.005465,21.8572053 118.088112,21.9124684 C118.17076,21.9666263 118.236654,22.0351526 118.284679,22.1202579 C118.33382,22.2042579 118.358391,22.3103632 118.358391,22.4374684 C118.358391,22.6076789 118.309249,22.7458368 118.212083,22.8508368 C118.1138,22.9569421 117.983128,23.0276789 117.817834,23.0641526 L118.449973,24.0809947 L117.937337,24.0809947 L117.386728,23.1094684 L117.084061,23.1094684 L117.084061,24.0809947 L116.66189,24.0809947 L116.66189,21.7577316 L117.488362,21.7577316 Z M117.469375,22.1114158 L117.084061,22.1114158 L117.084061,22.7734684 L117.423584,22.7734684 C117.545321,22.7734684 117.661474,22.7502579 117.772043,22.7049421 C117.881494,22.6596263 117.937337,22.5678895 117.937337,22.4286263 C117.937337,22.3015211 117.885962,22.2175211 117.785445,22.1744158 C117.683811,22.1324158 117.579944,22.1114158 117.469375,22.1114158 Z M93.0828697,10.8082211 C93.5117416,10.8082211 93.9048742,10.8833789 94.2645011,11.0325895 C94.6241281,11.1806947 94.9323798,11.3873789 95.1892562,11.6482211 C95.4450157,11.9112737 95.6460494,12.2196421 95.7923573,12.5744316 C95.9375483,12.9303263 96.0101438,13.3160632 96.0101438,13.7294316 C96.0101438,14.1428 95.9375483,14.5274316 95.7923573,14.8833263 C95.6460494,15.2392211 95.4450157,15.5486947 95.1892562,15.8095368 C94.9323798,16.0714842 94.6241281,16.2770632 94.2645011,16.4262737 C93.9048742,16.5743789 93.5117416,16.6495368 93.0828697,16.6495368 C92.6539978,16.6495368 92.2608652,16.5743789 91.9001213,16.4262737 C91.5404944,16.2770632 91.2333596,16.0714842 90.9764831,15.8095368 C90.7196067,15.5486947 90.518573,15.2392211 90.373382,14.8833263 C90.2270742,14.5274316 90.1555955,14.1428 90.1555955,13.7294316 C90.1555955,13.3160632 90.2270742,12.9303263 90.373382,12.5744316 C90.518573,12.2196421 90.7196067,11.9112737 90.9764831,11.6482211 C91.2333596,11.3873789 91.5404944,11.1806947 91.9001213,11.0325895 C92.2608652,10.8833789 92.6539978,10.8082211 93.0828697,10.8082211 Z M58.4883191,10.8085526 C59.0065393,10.8085526 59.429827,10.8726579 59.758182,11.0008684 C60.0854202,11.1290789 60.3601663,11.3048158 60.5824202,11.5313947 L60.0429798,12.1039211 C59.8106742,11.8839737 59.5649663,11.7303421 59.3058562,11.6441316 C59.0456292,11.5579211 58.7742337,11.5148158 58.4883191,11.5148158 C58.1655483,11.5148158 57.8751663,11.5745 57.6160562,11.6916579 C57.3569461,11.8099211 57.1335753,11.9679737 56.9492944,12.1669211 C56.7638966,12.3647632 56.6220562,12.5990789 56.5215393,12.8698684 C56.4210225,13.1395526 56.370764,13.4247105 56.370764,13.7297632 C56.370764,14.0425526 56.4266067,14.3354474 56.5360584,14.6051316 C56.6477438,14.8737105 56.8018697,15.1080263 56.9962022,15.3069737 C57.1927685,15.5059211 57.4228404,15.6617632 57.6875348,15.7733947 C57.9522292,15.8872368 58.2403775,15.9436053 58.5519798,15.9436053 C58.8211416,15.9436053 59.0769011,15.9181842 59.3181416,15.8684474 C59.5571483,15.8187105 59.7626494,15.7468684 59.9324112,15.6529211 L59.9324112,14.1066579 L58.6871191,14.1066579 L58.6871191,13.3992895 L60.6941056,13.3992895 L60.6941056,16.1392368 C60.5567326,16.2232368 60.400373,16.2961842 60.2261438,16.3591842 C60.0519146,16.4210789 59.8709843,16.4752368 59.6833528,16.5194474 C59.4946045,16.5636579 59.3047393,16.5979211 59.1115236,16.6178158 C58.9183079,16.6399211 58.7373775,16.6487632 58.5676157,16.6487632 C58.091836,16.6487632 57.6674315,16.5713947 57.2944022,16.4144474 C56.921373,16.2575 56.6075371,16.0452895 56.3506607,15.7778158 C56.0937843,15.5114474 55.8983348,15.2008684 55.7631955,14.8482895 C55.629173,14.4946053 55.5610449,14.1210263 55.5610449,13.7297632 C55.5610449,13.3163947 55.6336404,12.9306579 55.7799483,12.5747632 C55.9240225,12.2199737 56.1250562,11.9105 56.3830494,11.6485526 C56.638809,11.3877105 56.9470607,11.1810263 57.3066876,11.0318158 C57.6663146,10.8837105 58.060564,10.8085526 58.4883191,10.8085526 Z M74.1934074,10.9502474 L74.1934074,14.3566684 C74.1934074,14.5290895 74.2168613,14.7092474 74.2637692,14.8949316 C74.3117939,15.0806158 74.3910906,15.2530368 74.5016591,15.4088789 C74.6133445,15.5669316 74.7585355,15.6940368 74.938349,15.7935105 C75.1181625,15.8940895 75.3404164,15.9438263 75.6051108,15.9438263 C75.8698052,15.9438263 76.0909422,15.8940895 76.2707557,15.7935105 C76.4505692,15.6940368 76.5957602,15.5669316 76.7074456,15.4088789 C76.819131,15.2530368 76.8984276,15.0806158 76.9464524,14.8949316 C76.9933602,14.7092474 77.0168142,14.5290895 77.0168142,14.3566684 L77.0168142,10.9502474 L77.7785085,10.9502474 L77.7785085,14.4738263 C77.7785085,14.7987737 77.7226658,15.0938789 77.6132142,15.3580368 C77.5015288,15.6233 77.3474029,15.8520895 77.1519535,16.0444053 C76.956504,16.2389316 76.7264321,16.3881421 76.4617378,16.4931421 C76.1970434,16.5970368 75.9111288,16.6489842 75.6051108,16.6489842 C75.297976,16.6489842 75.0120613,16.5970368 74.7484838,16.4931421 C74.4837894,16.3881421 74.2537175,16.2389316 74.0582681,16.0444053 C73.8617018,15.8520895 73.7086928,15.6233 73.5981243,15.3580368 C73.4864389,15.0938789 73.4305962,14.7987737 73.4305962,14.4738263 L73.4305962,10.9502474 L74.1934074,10.9502474 Z M66.8467422,10.9500263 C67.2063692,10.9500263 67.5023355,10.9986579 67.735758,11.0948158 C67.9680636,11.1920789 68.1512276,11.3147632 68.286367,11.4639737 C68.4215063,11.6131842 68.515322,11.7811842 68.5678142,11.9668684 C68.6214231,12.1525526 68.6471108,12.3316053 68.6471108,12.5040263 C68.6471108,12.6830789 68.6158389,12.8543947 68.5521782,13.0179737 C68.4896344,13.1837632 68.3980524,13.3318684 68.278549,13.4667105 C68.1601625,13.5993421 68.0138546,13.7120789 67.842976,13.8038158 C67.6698636,13.8955526 67.4777647,13.9519211 67.2666793,13.9729211 L68.8615467,16.5083947 L67.9099872,16.5083947 L66.481531,14.0591316 L65.632722,14.0591316 L65.632722,16.5083947 L64.8710276,16.5083947 L64.8710276,10.9500263 L66.8467422,10.9500263 Z M84.4317191,10.9500263 C84.7902292,10.9500263 85.0873124,10.9986579 85.319618,11.0948158 C85.5519236,11.1920789 85.7362045,11.3147632 85.8713438,11.4639737 C86.0053663,11.6131842 86.099182,11.7811842 86.152791,11.9668684 C86.2052831,12.1525526 86.2320876,12.3316053 86.2320876,12.5040263 C86.2320876,12.6775526 86.2052831,12.8566053 86.152791,13.0422895 C86.099182,13.2279737 86.0053663,13.3948684 85.8713438,13.5451842 C85.7362045,13.6943947 85.5519236,13.8170789 85.319618,13.9132368 C85.0873124,14.0105 84.7902292,14.0591316 84.4317191,14.0591316 L83.2176989,14.0591316 L83.2176989,16.5083947 L82.4548876,16.5083947 L82.4548876,10.9500263 L84.4317191,10.9500263 Z M93.0828697,11.5144842 C92.7600989,11.5144842 92.4686,11.5741684 92.2106067,11.6913263 C91.9503798,11.8095895 91.7281258,11.9676421 91.5438449,12.1665895 C91.3584472,12.3655368 91.2154899,12.5998526 91.114973,12.8695368 C91.0144562,13.1392211 90.9653146,13.4254842 90.9653146,13.7294316 C90.9653146,14.0322737 91.0144562,14.3185368 91.114973,14.5882211 C91.2154899,14.8590105 91.3584472,15.0922211 91.5438449,15.2911684 C91.7281258,15.4901158 91.9503798,15.6481684 92.2106067,15.7664316 C92.4686,15.8835895 92.7600989,15.9432737 93.0828697,15.9432737 C93.4045236,15.9432737 93.6960225,15.8835895 93.9551326,15.7664316 C94.2142427,15.6481684 94.4364966,15.4901158 94.6218944,15.2911684 C94.8061753,15.0922211 94.9491326,14.8590105 95.0507663,14.5882211 C95.1512831,14.3185368 95.2004247,14.0322737 95.2004247,13.7294316 C95.2004247,13.4254842 95.1512831,13.1392211 95.0507663,12.8695368 C94.9491326,12.5998526 94.8061753,12.3655368 94.6218944,12.1665895 C94.4364966,11.9676421 94.2142427,11.8095895 93.9551326,11.6913263 C93.6960225,11.5741684 93.4045236,11.5144842 93.0828697,11.5144842 Z M66.6334231,11.6098684 L65.632722,11.6098684 L65.632722,13.3992895 L66.6334231,13.3992895 C66.779731,13.3992895 66.9271557,13.3871316 67.0723467,13.3639211 C67.2175378,13.3396053 67.3470928,13.2965 67.4621288,13.2346053 C67.574931,13.1716053 67.6653962,13.0809737 67.735758,12.9627105 C67.8038861,12.8455526 67.8385085,12.6919211 67.8385085,12.5040263 C67.8385085,12.3161316 67.8038861,12.1625 67.735758,12.0442368 C67.6653962,11.9270789 67.574931,11.8375526 67.4621288,11.7734474 C67.3470928,11.7115526 67.2175378,11.6684474 67.0723467,11.6441316 C66.9271557,11.6220263 66.779731,11.6098684 66.6334231,11.6098684 Z M84.2172831,11.6098684 L83.2176989,11.6098684 L83.2176989,13.3992895 L84.2172831,13.3992895 C84.3647079,13.3992895 84.5110157,13.3871316 84.6573236,13.3639211 C84.8025146,13.3396053 84.9320697,13.2965 85.0459888,13.2346053 C85.158791,13.1716053 85.250373,13.0809737 85.319618,12.9627105 C85.3877461,12.8455526 85.4234854,12.6919211 85.4234854,12.5040263 C85.4234854,12.3161316 85.3877461,12.1625 85.319618,12.0442368 C85.250373,11.9270789 85.158791,11.8375526 85.0459888,11.7734474 C84.9320697,11.7115526 84.8025146,11.6684474 84.6573236,11.6441316 C84.5110157,11.6220263 84.3647079,11.6098684 84.2172831,11.6098684 Z" id="Fill-4"></path>
                <polygon id="Fill-3" fill-opacity="0.8" points="42.1886178 8.46008947 42.1886178 22.0901947 48.0856065 27.8607737 48.0856065 2.70940526 22.2371391 2.70940526 28.1140245 8.46008947"></polygon>
            </g>
        </g>
    </g>
</svg>