<?xml version="1.0" encoding="UTF-8"?>
<svg width="130px" height="38px" viewBox="0 0 130 38" version="1.1" xmlns="http://www.w3.org/2000/svg" xmlns:xlink="http://www.w3.org/1999/xlink">
    <!-- Generator: Sketch 64 (93537) - https://sketch.com -->
    <title>Logo / Fragua</title>
    <desc>Created with Sketch.</desc>
    <g id="Desktop" stroke="none" stroke-width="1" fill="none" fill-rule="evenodd">
        <g id="Home_Todas-Copy" transform="translate(-535.000000, -1197.000000)">
            <g id="Logo-/-Fragua" transform="translate(530.000000, 1195.000000)">
                <path d="M24.288768,2.519664 C34.610688,2.519664 42.978208,10.887184 42.978208,21.209104 C42.978208,31.529904 34.610688,39.897424 24.288768,39.897424 C23.147488,39.897424 22.031968,39.789904 20.948928,39.595024 C21.029568,39.526704 21.105728,39.458384 21.174048,39.390064 C21.393568,39.166064 21.135968,38.808784 20.857088,38.955504 C20.560288,39.111184 19.582528,39.297104 19.582528,39.297104 C17.019968,38.631824 14.671328,37.435664 12.659808,35.832944 C15.142848,36.394064 17.502688,37.017904 18.866848,36.857744 C20.012608,36.724464 20.728288,36.298864 21.174048,35.844144 C21.393568,35.620144 21.135968,35.262864 20.857088,35.409584 C20.252288,35.726544 19.337248,35.974064 17.998848,35.847504 C15.322048,35.594384 12.728128,34.669264 10.735648,34.068944 C10.002048,33.296144 9.332288,32.462864 8.737568,31.572464 C12.359648,31.967824 16.780288,33.555984 18.866848,33.312944 C20.012608,33.178544 20.728288,32.752944 21.174048,32.299344 C21.393568,32.075344 21.135968,31.718064 20.857088,31.863664 C20.252288,32.180624 19.337248,32.428144 17.998848,32.302704 C14.504448,31.972304 11.146688,30.492784 9.093728,30.092944 C8.616608,30.001104 8.167488,29.941744 7.747488,29.907024 C7.415968,29.276464 7.119168,28.623504 6.858208,27.951504 C10.671808,27.785744 16.400608,30.054864 18.866848,29.767024 C20.012608,29.633744 20.728288,29.208144 21.174048,28.753424 C21.393568,28.529424 21.135968,28.172144 20.857088,28.318864 C20.252288,28.635824 19.337248,28.883344 17.998848,28.756784 C14.504448,28.427504 11.146688,26.946864 9.093728,26.548144 C8.011808,26.337584 7.063168,26.299504 6.315008,26.327504 C6.147008,25.732784 6.007008,25.126864 5.896128,24.509744 C9.633568,23.817584 16.183328,26.533584 18.866848,26.221104 C20.012608,26.087824 20.728288,25.662224 21.174048,25.207504 C21.393568,24.983504 21.135968,24.627344 20.857088,24.772944 C20.252288,25.089904 19.337248,25.337424 17.998848,25.210864 C14.504448,24.881584 11.146688,23.402064 9.093728,23.002224 C7.671328,22.726704 6.479648,22.746864 5.674368,22.824144 C5.628448,22.291024 5.599328,21.753424 5.599328,21.209104 L5.599328,21.209104 L5.603808,21.027664 C9.283008,20.126064 16.110528,22.997744 18.866848,22.676304 C20.012608,22.543024 20.728288,22.116304 21.174048,21.662704 C21.393568,21.438704 21.135968,21.081424 20.857088,21.228144 C20.252288,21.543984 19.337248,21.791504 17.998848,21.666064 C14.504448,21.335664 11.146688,19.856144 9.093728,19.456304 C7.687008,19.184144 6.504288,19.200944 5.699008,19.275984 C5.765088,18.642064 5.861408,18.017104 5.987968,17.403344 C9.739968,16.771664 16.204608,19.440624 18.866848,19.130384 C20.012608,18.997104 20.728288,18.571504 21.174048,18.116784 C21.393568,17.892784 21.135968,17.535504 20.857088,17.682224 C20.252288,17.999184 19.337248,18.246704 17.998848,18.120144 C14.504448,17.790864 11.146688,16.310224 9.093728,15.911504 C8.066688,15.711024 7.159488,15.667344 6.430368,15.686384 C6.633088,15.027824 6.875008,14.387184 7.146048,13.761104 C10.955168,13.714064 16.462208,15.865584 18.866848,15.584464 C20.012608,15.451184 20.728288,15.025584 21.174048,14.571984 C21.393568,14.346864 21.135968,13.990704 20.857088,14.136304 C20.252288,14.453264 19.337248,14.700784 17.998848,14.575344 C14.504448,14.244944 11.146688,12.764304 9.093728,12.365584 C8.678208,12.286064 8.287328,12.232304 7.915488,12.196464 C8.269408,11.553584 8.663648,10.936464 9.088128,10.341744 C12.640768,10.795344 16.846368,12.274864 18.866848,12.039664 C20.012608,11.906384 20.728288,11.479664 21.174048,11.026064 C21.393568,10.802064 21.135968,10.444784 20.857088,10.591504 C20.252288,10.907344 19.337248,11.154864 17.998848,11.029424 C15.021888,10.748304 12.146848,9.635024 10.090528,9.063824 C10.630368,8.433264 11.208288,7.838544 11.826528,7.285264 C14.605248,7.881104 17.351488,8.670704 18.866848,8.493744 C20.012608,8.360464 20.728288,7.934864 21.174048,7.480144 C21.393568,7.256144 21.135968,6.898864 20.857088,7.045584 C20.252288,7.362544 19.337248,7.610064 17.998848,7.483504 C16.219168,7.315504 14.475328,6.848464 12.920768,6.379184 C13.791008,5.711664 14.721728,5.118064 15.703968,4.609584 C16.976288,4.873904 18.085088,5.039664 18.866848,4.948944 C20.012608,4.814544 20.728288,4.388944 21.174048,3.935344 C21.393568,3.710224 21.135968,3.354064 20.857088,3.499664 C20.252288,3.816624 19.337248,4.064144 17.998848,3.938704 C17.778208,3.917424 17.556448,3.891664 17.335808,3.861424 C19.486208,2.999024 21.831488,2.519664 24.288768,2.519664 Z M95.984784,15.900864 C97.205584,15.900864 98.027664,15.984864 99.501584,16.280544 L99.501584,18.828544 C98.491344,17.878784 97.310864,17.480064 95.542384,17.480064 C91.919184,17.480064 89.328624,19.944064 89.328624,23.377984 C89.328624,26.852224 92.213744,29.675744 95.794384,29.675744 C96.848304,29.675744 98.154224,29.485344 98.848624,29.232224 L98.848624,26.282144 C98.848624,24.388224 98.680624,23.881984 97.858544,23.439584 L101.207344,23.439584 C101.123344,23.713984 101.080784,24.135104 101.080784,24.745504 L101.080784,29.464064 C101.080784,30.158464 101.102064,30.285024 101.207344,30.600864 C100.912784,30.621024 100.850064,30.621024 100.427824,30.727424 C98.386064,31.127264 97.332144,31.254944 95.879504,31.254944 C93.456944,31.254944 91.561904,30.748704 90.003984,29.694784 C87.958864,28.304864 86.801904,26.115264 86.801904,23.672544 C86.801904,21.144704 88.023824,18.932704 90.214544,17.480064 C91.793744,16.407104 93.667504,15.900864 95.984784,15.900864 Z M106.890672,16.259712 C106.089872,16.699872 105.901712,17.204992 105.901712,19.102272 L105.901712,25.566912 C105.901712,27.063232 106.069712,27.694912 106.680112,28.410592 C107.333072,29.190112 108.364592,29.631392 109.502512,29.631392 C110.808432,29.631392 112.029232,29.042272 112.703472,28.095872 C113.061872,27.609792 113.167152,27.167392 113.167152,26.325152 L113.167152,19.102272 C113.167152,17.204992 112.977872,16.699872 112.177072,16.259712 L116.389392,16.259712 C115.588592,16.699872 115.399312,17.204992 115.399312,19.102272 L115.399312,28.052192 C115.399312,29.947232 115.588592,30.453472 116.389392,30.895872 L113.251152,30.895872 L113.251152,29.358112 C112.198352,30.621472 110.703152,31.254272 108.848432,31.254272 C106.722672,31.254272 104.973232,30.349312 104.194832,28.810432 C103.773712,28.009632 103.667312,27.357792 103.667312,25.566912 L103.667312,19.102272 C103.667312,17.204992 103.500432,16.699872 102.679472,16.259712 L106.890672,16.259712 Z M63.146944,16.217152 C64.599584,16.217152 65.632224,16.490432 66.431904,17.078432 C67.337984,17.754912 67.906944,18.848032 67.906944,19.922112 C67.906944,21.628992 66.411744,23.208192 64.305024,23.734592 C67.3911112,27.8760358 69.0639348,29.6986484 70.7021209,30.6802311 C71.4825793,30.1285356 71.7882232,29.604719 72.441488,27.906032 L76.359248,18.134032 C76.527248,17.690512 76.611248,17.395952 76.611248,17.121552 C76.611248,16.742992 76.443248,16.511152 75.938128,16.259152 L79.476208,16.259152 L84.152208,27.906032 C84.847728,29.652112 85.287888,30.306192 86.300368,30.896432 L81.688208,30.896432 C82.361328,30.496592 82.486768,30.370032 82.486768,30.010512 C82.486768,29.799952 82.445328,29.631952 82.109328,28.769552 L80.803408,25.377072 L75.178768,25.377072 L73.916528,28.769552 C73.747408,29.210832 73.663408,29.631952 73.663408,29.906352 C73.663408,30.326352 73.872848,30.580592 74.463088,30.896432 L71.086624,30.895872 L71.086624,30.895872 C69.717984,31.001152 69.487264,31.022432 69.043744,31.022432 C67.780384,31.022432 67.106144,30.600192 65.610944,28.810432 C64.305024,27.274912 62.915104,25.313792 61.714464,23.270912 C64.221024,22.850912 65.421664,21.798112 65.421664,20.092352 C65.421664,18.638592 64.326304,17.627232 62.725824,17.627232 C62.240864,17.627232 61.841024,17.668672 61.166784,17.796352 L61.166784,28.052192 C61.166784,29.947232 61.334784,30.453472 62.156864,30.895872 L57.944544,30.895872 C58.765504,30.453472 58.934624,29.947232 58.934624,28.052192 L58.934624,19.102272 C58.934624,17.204992 58.765504,16.699872 57.944544,16.259712 L61.166784,16.259712 C61.356064,16.259712 61.714464,16.259712 62.199424,16.236192 C62.577984,16.217152 62.893824,16.217152 63.146944,16.217152 Z M56.2968,16.132032 L56.2968,18.701312 C55.58,18.027072 55.01216,17.838912 53.59984,17.838912 C52.5056,17.838912 51.95792,17.879232 51.28368,17.986752 L51.28368,22.135232 L54.25392,22.135232 C54.59104,22.135232 54.73888,22.113952 55.01216,21.987392 L55.01216,24.346112 C54.67504,23.881312 54.23264,23.734592 53.26384,23.734592 L51.28368,23.734592 L51.28368,28.052192 C51.28368,29.947232 51.4528,30.453472 52.27488,30.895872 L48.06144,30.895872 C48.8824,30.453472 49.05152,29.947232 49.05152,28.052192 L49.05152,19.102272 C49.05152,17.204992 48.8824,16.699872 48.06144,16.259712 L55.45456,16.259712 C55.8544,16.259712 56.00112,16.236192 56.2968,16.132032 Z M127.332128,16.259152 L132.008128,27.906032 C132.703648,29.652112 133.144928,30.306192 134.156288,30.896432 L129.544128,30.896432 C130.217248,30.496592 130.343808,30.370032 130.343808,30.010512 C130.343808,29.799952 130.301248,29.631952 129.965248,28.769552 L128.660448,25.377072 L123.035808,25.377072 L121.772448,28.769552 C121.604448,29.210832 121.520448,29.631952 121.520448,29.906352 C121.520448,30.326352 121.729888,30.580592 122.319008,30.896432 L118.234368,30.896432 C119.267008,30.243472 119.560448,29.822352 120.298528,27.906032 L124.216288,18.134032 C124.383168,17.690512 124.468288,17.395952 124.468288,17.121552 C124.468288,16.742992 124.299168,16.511152 123.795168,16.259152 L127.332128,16.259152 Z M77.981008,18.134032 L75.706288,23.944592 L80.234448,23.944592 L77.981008,18.134032 Z M125.836928,18.134032 L123.562208,23.944592 L128.090368,23.944592 L125.836928,18.134032 Z M118.89472,11.015648 C118.89024,11.039168 118.89024,11.055968 118.89024,11.070528 C118.89024,11.128768 118.9272,11.258688 118.99776,11.455808 L119.77392,13.574848 L120.44368,11.819808 C120.5568,11.531968 120.58704,11.406528 120.58704,11.284448 C120.58704,11.150048 120.53328,11.064928 120.4168,11.015648 L121.13472,11.015648 L119.86912,14.274848 C119.42896,13.989248 119.39424,13.947808 119.2576,13.552448 L118.61696,11.819808 C118.38736,11.190368 118.38288,11.182528 118.20368,11.015648 L118.89472,11.015648 Z M125.822592,10.935232 C126.270592,10.935232 126.729792,11.109952 127.029952,11.402272 C127.326752,11.690112 127.510432,12.129152 127.510432,12.555872 C127.510432,13.480992 126.737632,14.213472 125.758752,14.213472 C124.794432,14.213472 124.030592,13.498912 124.030592,12.591712 C124.030592,11.649792 124.803392,10.935232 125.822592,10.935232 Z M91.944832,10.935232 C92.392832,10.935232 92.852032,11.109952 93.152192,11.402272 C93.448992,11.690112 93.632672,12.129152 93.632672,12.555872 C93.632672,13.480992 92.859872,14.213472 91.880992,14.213472 C90.916672,14.213472 90.152832,13.498912 90.152832,12.591712 C90.152832,11.649792 90.925632,10.935232 91.944832,10.935232 Z M74.323424,10.935232 C74.771424,10.935232 75.230624,11.109952 75.530784,11.402272 C75.827584,11.690112 76.011264,12.129152 76.011264,12.555872 C76.011264,13.480992 75.238464,14.213472 74.260704,14.213472 C73.295264,14.213472 72.531424,13.498912 72.531424,12.591712 C72.531424,11.649792 73.304224,10.935232 74.323424,10.935232 Z M68.46392,10.93904 C68.698,10.93904 68.98472,10.97936 69.31736,11.06112 L69.31736,11.60432 C69.00376,11.42512 68.7428,11.34448 68.45496,11.34448 C67.79192,11.34448 67.32488,11.82384 67.32488,12.50256 C67.32488,13.24736 67.84904,13.83088 68.51768,13.83088 C68.84584,13.83088 69.14264,13.74128 69.55592,13.52176 L69.31736,14.0728 C69.06088,14.17696 68.86936,14.2128 68.58152,14.2128 C67.4996,14.2128 66.78504,13.56656 66.78504,12.5832 C66.78504,11.63568 67.49512,10.93904 68.46392,10.93904 Z M97.702416,11.007136 C98.011536,11.007136 98.233296,11.065376 98.403536,11.190816 C98.596176,11.335296 98.717136,11.568256 98.717136,11.797856 C98.717136,12.160736 98.399056,12.497856 97.949936,12.610976 C98.658896,13.561856 99.018416,13.938176 99.395856,14.136416 C99.103536,14.158816 99.054256,14.163296 98.960176,14.163296 C98.690256,14.163296 98.546896,14.072576 98.227696,13.692896 C97.949936,13.364736 97.653136,12.946976 97.396656,12.511296 C97.932016,12.421696 98.188496,12.197696 98.188496,11.832576 C98.188496,11.523456 97.954416,11.308416 97.612816,11.308416 C97.509776,11.308416 97.424656,11.316256 97.280176,11.344256 L97.280176,13.530496 C97.280176,13.933696 97.316016,14.042336 97.490736,14.136416 L96.593616,14.136416 C96.768336,14.042336 96.804176,13.933696 96.804176,13.530496 L96.804176,11.623136 C96.804176,11.218816 96.768336,11.110176 96.593616,11.016096 L97.280176,11.016096 C97.320496,11.016096 97.396656,11.016096 97.500816,11.011616 C97.581456,11.007136 97.648656,11.007136 97.702416,11.007136 Z M80.422272,11.007136 C80.732512,11.007136 80.953152,11.065376 81.123392,11.190816 C81.316032,11.335296 81.436992,11.568256 81.436992,11.797856 C81.436992,12.160736 81.118912,12.497856 80.669792,12.610976 C81.378752,13.561856 81.738272,13.938176 82.115712,14.136416 C81.823392,14.158816 81.774112,14.163296 81.680032,14.163296 C81.410112,14.163296 81.266752,14.072576 80.948672,13.692896 C80.669792,13.364736 80.372992,12.946976 80.117632,12.511296 C80.651872,12.421696 80.908352,12.197696 80.908352,11.832576 C80.908352,11.523456 80.674272,11.308416 80.332672,11.308416 C80.229632,11.308416 80.144512,11.316256 80.001152,11.344256 L80.001152,13.530496 C80.001152,13.933696 80.035872,14.042336 80.210592,14.136416 L79.314592,14.136416 C79.489312,14.042336 79.524032,13.933696 79.524032,13.530496 L79.524032,11.623136 C79.524032,11.218816 79.489312,11.110176 79.314592,11.016096 L80.001152,11.016096 C80.041472,11.016096 80.117632,11.016096 80.220672,11.011616 C80.302432,11.007136 80.368512,11.007136 80.422272,11.007136 Z M103.996704,11.016432 L104.993504,13.498352 C105.142464,13.871312 105.236544,14.010192 105.451584,14.136752 L104.468224,14.136752 C104.611584,14.051632 104.638464,14.023632 104.638464,13.948592 C104.638464,13.903792 104.630624,13.866832 104.557824,13.683152 L104.280064,12.960752 L103.081664,12.960752 L102.811744,13.683152 C102.775904,13.777232 102.757984,13.866832 102.757984,13.925072 C102.757984,14.014672 102.802784,14.068432 102.928224,14.136752 L102.057984,14.136752 C102.277504,13.997872 102.341344,13.908272 102.497024,13.498352 L103.332544,11.416272 C103.368384,11.321072 103.386304,11.258352 103.386304,11.200112 C103.386304,11.119472 103.350464,11.070192 103.241824,11.016432 L103.996704,11.016432 Z M110.413184,10.985184 L110.259744,11.550784 C110.188064,11.410784 110.089504,11.370464 109.816224,11.370464 C109.712064,11.370464 109.712064,11.370464 109.483584,11.385024 L109.406304,11.385024 L109.406304,13.580224 C109.406304,13.893824 109.455584,14.001344 109.658304,14.136864 L108.719744,14.136864 C108.889984,14.047264 108.930304,13.929664 108.930304,13.530944 L108.930304,11.385024 C108.836224,11.376064 108.661504,11.370464 108.549504,11.370464 C108.248224,11.370464 108.131744,11.401824 107.934624,11.550784 L108.109344,10.985184 C108.163104,11.003104 108.261664,11.015424 108.352384,11.015424 L110.134304,11.015424 C110.232864,11.012064 110.295584,11.007584 110.317984,11.007584 C110.349344,11.003104 110.362784,11.003104 110.413184,10.985184 Z M114.698976,11.015872 C114.524256,11.109952 114.488416,11.218592 114.488416,11.622912 L114.488416,13.530272 C114.488416,13.933472 114.524256,14.042112 114.698976,14.136192 L113.801856,14.136192 C113.976576,14.042112 114.012416,13.933472 114.012416,13.530272 L114.012416,11.622912 C114.012416,11.218592 113.976576,11.109952 113.801856,11.015872 L114.698976,11.015872 Z M86.146368,11.011504 C86.411808,11.011504 86.599968,11.047344 86.770208,11.129104 C87.062528,11.271344 87.251808,11.546864 87.251808,11.841424 C87.251808,12.331984 86.779168,12.730704 86.204608,12.730704 C86.056768,12.730704 85.989568,12.717264 85.864128,12.669104 C86.159808,12.632144 86.322208,12.569424 86.473408,12.439504 C86.640288,12.296144 86.720928,12.129264 86.720928,11.926544 C86.720928,11.563664 86.461088,11.339664 86.034368,11.339664 C85.908928,11.339664 85.831648,11.348624 85.701728,11.379984 L85.701728,13.579664 C85.701728,13.888784 85.756608,14.015344 85.949248,14.136304 L85.015168,14.136304 C85.189888,14.042224 85.225728,13.933584 85.225728,13.530384 L85.225728,11.623024 C85.225728,11.218704 85.189888,11.110064 85.015168,11.015984 L85.5839621,11.0158181 C85.6550613,11.0154862 85.740928,11.0144907 85.998528,11.011504 L86.146368,11.011504 Z M125.755392,11.276832 C125.436192,11.276832 125.103552,11.411232 124.892992,11.627392 C124.690272,11.836832 124.564832,12.173952 124.564832,12.515552 C124.564832,12.879552 124.703712,13.252512 124.946752,13.521312 C125.161792,13.758752 125.430592,13.876352 125.776672,13.876352 C126.486752,13.876352 126.970592,13.368992 126.970592,12.632032 C126.970592,12.278112 126.855232,11.940992 126.648032,11.690112 C126.413952,11.411232 126.128352,11.276832 125.755392,11.276832 Z M91.877632,11.276832 C91.558432,11.276832 91.225792,11.411232 91.015232,11.627392 C90.813632,11.836832 90.688192,12.173952 90.688192,12.515552 C90.688192,12.879552 90.827072,13.252512 91.070112,13.521312 C91.285152,13.758752 91.553952,13.876352 91.900032,13.876352 C92.608992,13.876352 93.093952,13.368992 93.093952,12.632032 C93.093952,12.278112 92.977472,11.940992 92.770272,11.690112 C92.537312,11.411232 92.250592,11.276832 91.877632,11.276832 Z M74.256224,11.276832 C73.937024,11.276832 73.604384,11.411232 73.393824,11.627392 C73.192224,11.836832 73.066784,12.173952 73.066784,12.515552 C73.066784,12.879552 73.205664,13.252512 73.448704,13.521312 C73.663744,13.758752 73.932544,13.876352 74.278624,13.876352 C74.988704,13.876352 75.472544,13.368992 75.472544,12.632032 C75.472544,12.278112 75.356064,11.940992 75.148864,11.690112 C74.915904,11.411232 74.629184,11.276832 74.256224,11.276832 Z M103.678624,11.416272 L103.192544,12.653872 L104.159104,12.653872 L103.678624,11.416272 Z" id="Fill-2" fill="#FFFFFF" fill-rule="evenodd"></path>
                <rect id="Rectangle-Copy-8" x="0" y="0" width="140" height="42"></rect>
            </g>
        </g>
    </g>
</svg>