<?xml version="1.0" encoding="UTF-8"?>
<svg width="129px" height="36px" viewBox="0 0 129 36" version="1.1" xmlns="http://www.w3.org/2000/svg" xmlns:xlink="http://www.w3.org/1999/xlink">
    <!-- Generator: Sketch 64 (93537) - https://sketch.com -->
    <title>Logo / Global Gas</title>
    <desc>Created with Sketch.</desc>
    <g id="Desktop" stroke="none" stroke-width="1" fill="none" fill-rule="evenodd">
        <g id="Home_Todas-Copy" transform="translate(-1016.000000, -1197.000000)">
            <g id="Logo-/-Global-Gas" transform="translate(1010.000000, 1195.000000)">
                <path d="M92.398208,21.6553103 C95.220608,23.3131648 96.961088,25.57548 96.961088,28.0705345 C96.961088,33.1555042 89.747168,37.2764255 80.847648,37.2764255 C71.948128,37.2764255 64.735328,33.1555042 64.735328,28.0705345 C64.735328,25.57548 66.474688,23.3131648 69.295968,21.6553103 C67.591328,22.9601952 66.583328,24.5628982 66.583328,26.2957588 C66.583328,30.6648618 72.968448,34.2088982 80.847648,34.2088982 C88.725728,34.2088982 95.111968,30.6648618 95.111968,26.2957588 C95.111968,24.5617952 94.103968,22.9601952 92.398208,21.6553103 Z M14.700896,17.0820364 C16.138976,17.0820364 17.286976,17.5011879 18.110176,18.3317697 C18.921056,19.1524242 19.400416,20.3084 19.529216,21.7710182 L19.529216,21.7710182 L19.559456,22.092 L17.019296,22.7196242 L17.003616,22.2519394 C16.976736,21.3783394 16.725856,20.7010788 16.239776,20.1771394 C15.763776,19.6664364 15.147776,19.4193576 14.352576,19.4193576 C13.019776,19.4193576 11.998336,19.9719758 11.230016,21.1047879 C10.428096,22.2894424 9.878176,23.7244848 9.594816,25.368 C9.491776,26.0408485 9.438016,26.6552364 9.438016,27.186897 C9.438016,27.9325455 9.528736,28.6076 9.705696,29.1944121 C9.907296,29.773503 10.233216,30.2246424 10.703616,30.572097 C11.166176,30.9173455 11.692576,31.083903 12.306336,31.083903 C13.302016,31.083903 14.122976,30.7706424 14.817376,30.1231636 C15.514016,29.4756848 15.954176,28.6042909 16.123296,27.5321455 L16.123296,27.5321455 L16.198336,27.1295394 L12.683776,27.1295394 L13.047776,24.7900121 L19.159616,24.7900121 L17.740576,33.2833455 L15.993376,33.2833455 L15.857856,31.9354424 C14.816256,32.9005939 13.487936,33.3914424 11.898656,33.3914424 C9.900576,33.3914424 8.440096,32.5520364 7.556416,30.8963879 C7.002016,29.8496121 6.720896,28.6230424 6.720896,27.2530788 C6.720896,26.7545091 6.775776,26.1158545 6.884416,25.3525576 C7.127456,23.9241333 7.587776,22.5740242 8.258656,21.3331152 C8.932896,20.0756606 9.828896,19.0465333 10.919776,18.27 C12.027456,17.4802303 13.300896,17.0820364 14.700896,17.0820364 Z M108.355408,17.0820364 C109.796848,17.0820364 110.942608,17.5011879 111.766928,18.3317697 C112.576688,19.1524242 113.056048,20.3084 113.185968,21.7710182 L113.185968,21.7710182 L113.215088,22.092 L110.676048,22.7196242 L110.661488,22.2519394 C110.632368,21.3783394 110.382608,20.6999758 109.896528,20.1771394 C109.419408,19.6664364 108.802288,19.4193576 108.009328,19.4193576 C106.676528,19.4193576 105.653968,19.9719758 104.885648,21.1047879 C104.083728,22.2916485 103.533808,23.7244848 103.250448,25.368 C103.147408,26.0408485 103.094768,26.6530303 103.094768,27.186897 C103.094768,27.9325455 103.184368,28.6076 103.363568,29.1944121 C103.564048,29.773503 103.891088,30.2246424 104.358128,30.572097 C104.824048,30.9173455 105.348208,31.083903 105.963088,31.083903 C106.957648,31.083903 107.779728,30.7706424 108.474128,30.1231636 C109.170768,29.4756848 109.609808,28.6042909 109.780048,27.5310424 L109.780048,27.5310424 L109.855088,27.1284364 L106.339408,27.1284364 L106.703408,24.7900121 L112.817488,24.7900121 L111.398448,33.2833455 L109.649008,33.2833455 L109.515728,31.9354424 C108.471888,32.9005939 107.143568,33.3914424 105.554288,33.3914424 C103.556208,33.3914424 102.095728,32.5520364 101.213168,30.8963879 C100.657648,29.8496121 100.376528,28.6230424 100.376528,27.2530788 C100.376528,26.7545091 100.431408,26.1147515 100.542288,25.3514545 C100.783088,23.9241333 101.245648,22.5740242 101.913168,21.3331152 C102.588528,20.0767636 103.484528,19.0465333 104.575408,18.27 C105.685328,17.4802303 106.956528,17.0820364 108.355408,17.0820364 Z M130.231024,20.9509152 C131.338704,20.9509152 132.276144,21.201303 133.010864,21.6943576 C133.785904,22.2127818 134.217104,23.019097 134.297744,24.0934485 L134.297744,24.0934485 L134.322384,24.4166364 L132.093584,24.913 L132.025264,24.5236303 C131.939024,24.0394 131.726224,23.6842242 131.374544,23.4393515 C131.003824,23.1779333 130.546864,23.0521879 129.976784,23.0521879 C129.495184,23.0521879 129.025904,23.1746242 128.579024,23.4183939 C128.185904,23.6345879 127.951824,23.9434364 127.864464,24.3625879 C127.867824,24.6559939 127.918224,25.0244061 128.127664,25.1854485 C128.356144,25.3608303 128.719024,25.5042242 129.205104,25.6112182 L129.205104,25.6112182 L130.653264,25.9068303 C131.730704,26.1064788 132.459824,26.3767212 132.874224,26.7307939 C133.548464,27.2999576 133.892304,28.2474606 133.892304,29.5468303 L133.892304,29.5468303 L133.886704,29.6063939 C133.678384,30.8925273 133.035504,31.8609879 131.973744,32.4864061 C130.953424,33.0864545 129.814384,33.3908909 128.590224,33.3908909 C127.396304,33.3908909 126.375984,33.1052061 125.550544,32.5415576 C124.694864,31.9569515 124.208784,31.0623939 124.105744,29.8821515 L124.105744,29.8821515 L124.078864,29.5512424 L126.476784,29.0493636 L126.476784,29.5137394 C126.476784,30.0762848 126.695184,30.4711697 127.159984,30.7557515 C127.668464,31.0668061 128.256464,31.2234364 128.906064,31.2234364 C129.505264,31.2234364 130.069744,31.0866606 130.583824,30.8142121 C131.040784,30.5715455 131.302864,30.2020303 131.386864,29.682503 C131.382384,29.2865152 131.275984,29.0217879 131.058704,28.8717758 C130.777584,28.6754364 130.396784,28.5254242 129.927504,28.4272545 L129.927504,28.4272545 L128.258704,28.0577394 C125.843984,27.6088061 125.336624,26.2542848 125.336624,25.1975818 C125.336624,25.0619091 125.356784,24.8644667 125.403824,24.5754727 C125.599824,23.3764788 126.184464,22.4609636 127.137584,21.8465758 C128.062704,21.2520424 129.102064,20.9509152 130.231024,20.9509152 Z M119.822416,20.9533418 C121.505776,20.9533418 122.640336,21.3713903 123.196976,22.19756 C123.555376,22.7203964 123.737936,23.3921418 123.737936,24.1863236 C123.737936,24.4885539 123.661776,25.1261055 123.510576,26.1331721 L123.510576,26.1331721 L122.784816,30.5099964 C122.700816,31.0273176 122.660496,31.8016448 122.660496,32.8087115 L122.660496,32.8087115 L122.660496,33.1848448 L120.271536,33.1848448 L120.345456,31.9306994 C119.405776,32.900263 118.208496,33.3911115 116.764816,33.3911115 C115.760176,33.3911115 114.916816,33.1230752 114.258256,32.5947236 C113.573936,32.0487236 113.227856,31.2721903 113.227856,30.2860812 C113.227856,30.1371721 113.248016,29.9088448 113.291696,29.5646994 L113.291696,29.5646994 L113.295056,29.5470509 C113.423856,28.8300812 113.734096,28.1583358 114.216816,27.5450509 C114.697296,26.9328691 115.289776,26.4718024 115.972976,26.1728812 C116.922736,25.7173297 118.324976,25.4978267 120.261456,25.4978267 L120.261456,25.4978267 L121.272816,25.4978267 L121.312016,25.3257539 C121.347856,25.1514752 121.364656,24.8933661 121.364656,24.5580448 C121.364656,23.9921903 121.229136,23.5939964 120.964816,23.3744933 C120.680336,23.1395479 120.179696,23.0193176 119.475216,23.0193176 C117.986736,23.0193176 117.062736,23.5973055 116.650576,24.7852691 L116.650576,24.7852691 L116.539696,25.0996327 L114.327696,24.6462873 L114.443056,24.2558145 C114.674896,23.4759721 115.088176,22.8262873 115.677296,22.3266145 C116.248496,21.8379721 116.913776,21.4816933 117.655216,21.2677055 C118.376496,21.0581297 119.106736,20.9533418 119.822416,20.9533418 Z M31.928736,20.9529006 C33.299616,20.9529006 34.349056,21.4283067 35.047936,22.3669855 C35.719936,23.2703673 36.061536,24.4274461 36.061536,25.807337 C36.061536,26.09964 36.020096,26.5562945 35.934976,27.2026703 L35.934976,27.2026703 L35.932736,27.2181127 C35.632576,28.9421491 34.933696,30.4113855 33.852896,31.5828036 C32.745216,32.7829006 31.366496,33.3906703 29.751456,33.3906703 C28.386176,33.3906703 27.344576,32.9207794 26.653536,31.9909248 C25.988256,31.0996764 25.651136,29.9470097 25.651136,28.5671188 C25.651136,28.0056764 25.694816,27.4850461 25.779936,27.0217733 C26.056576,25.3407552 26.746496,23.8968885 27.826176,22.7376036 C28.930496,21.5529491 30.312576,20.9529006 31.928736,20.9529006 Z M53.808048,20.9533418 C55.490288,20.9533418 56.625968,21.3713903 57.181488,22.19756 C57.539888,22.7214994 57.723568,23.3932448 57.723568,24.1863236 C57.723568,24.4885539 57.648528,25.1250024 57.495088,26.1331721 L57.495088,26.1331721 L56.769328,30.5099964 C56.687568,31.0284206 56.645008,31.8027479 56.645008,32.8087115 L56.645008,32.8087115 L56.645008,33.1848448 L54.257168,33.1848448 L54.329968,31.9306994 C53.392528,32.900263 52.193008,33.3911115 50.751568,33.3911115 C49.746928,33.3911115 48.902448,33.1230752 48.242768,32.5947236 C47.559568,32.0487236 47.212368,31.2721903 47.212368,30.2860812 C47.212368,30.1360691 47.232528,29.9000206 47.276208,29.5635964 L47.276208,29.5635964 L47.279568,29.5470509 C47.408368,28.8311842 47.718608,28.1583358 48.201328,27.5450509 C48.684048,26.9328691 49.274288,26.4718024 49.958608,26.1728812 C50.907248,25.7173297 52.311728,25.4978267 54.245968,25.4978267 L54.245968,25.4978267 L55.259568,25.4978267 L55.297648,25.3257539 C55.331248,25.1514752 55.349168,24.8933661 55.349168,24.5580448 C55.349168,23.9921903 55.215888,23.5939964 54.951568,23.3744933 C54.667088,23.1395479 54.165328,23.0193176 53.460848,23.0193176 C51.971248,23.0193176 51.047248,23.5973055 50.635088,24.7852691 L50.635088,24.7852691 L50.526448,25.0996327 L48.313328,24.6462873 L48.429808,24.2558145 C48.659408,23.4759721 49.073808,22.8262873 49.660688,22.3266145 C50.233008,21.8379721 50.900528,21.4816933 51.639728,21.2677055 C52.362128,21.0581297 53.091248,20.9533418 53.808048,20.9533418 Z M41.400912,17.3195188 L40.594512,22.2191794 C41.431152,21.3775673 42.404432,20.9506945 43.500912,20.9506945 C44.208752,20.9506945 44.862832,21.1393127 45.444112,21.5088279 C46.022032,21.87724 46.470032,22.3691915 46.775792,22.9769612 L46.775792,22.9769612 L46.782512,22.9935067 C47.121872,23.7490824 47.293232,24.6270945 47.293232,25.6021733 C47.293232,25.9154339 47.249552,26.4073855 47.159952,27.1022945 L47.159952,27.1022945 L47.157712,27.1144279 C46.993072,28.1413491 46.664912,29.1406945 46.182192,30.0881976 C45.691632,31.0533491 45.038672,31.8486339 44.241232,32.4530945 C43.423632,33.0752036 42.473872,33.3906703 41.422192,33.3906703 C40.654992,33.3906703 39.980752,33.1700642 39.411792,32.7365733 C39.067952,32.46964 38.773392,32.1464521 38.535952,31.7692158 L38.535952,31.7692158 L37.880752,33.1855067 L36.400112,33.1855067 L39.018672,17.3195188 L41.400912,17.3195188 Z M25.300128,17.3194085 L22.681568,33.1853964 L20.299328,33.1853964 L22.916768,17.3194085 L25.300128,17.3194085 Z M63.371392,17.3194085 L60.751712,33.1853964 L58.369472,33.1853964 L60.988032,17.3194085 L63.371392,17.3194085 Z M54.915728,27.5638024 L54.029808,27.5638024 C51.426928,27.5638024 50.032528,28.27636 49.769328,29.7411842 C49.779408,30.8353903 50.255408,31.3229297 51.311568,31.3229297 C52.178448,31.3229297 52.925488,30.9909176 53.603088,30.3070388 C54.287408,29.6121297 54.717488,28.7793418 54.877648,27.8318388 L54.877648,27.8318388 L54.915728,27.5638024 Z M120.930096,27.5638024 L120.045296,27.5638024 C117.442416,27.5638024 116.048016,28.27636 115.784816,29.7411842 C115.793776,30.8353903 116.270896,31.3229297 117.327056,31.3229297 C118.191696,31.3229297 118.940976,30.9909176 119.617456,30.3070388 C120.301776,29.6121297 120.731856,28.7793418 120.893136,27.8318388 L120.893136,27.8318388 L120.930096,27.5638024 Z M43.001392,23.0519673 C42.546672,23.0519673 42.118832,23.1931552 41.688752,23.4832521 C41.244112,23.7821733 40.863312,24.1858824 40.553072,24.6767309 C40.241712,25.1741976 40.034512,25.6782824 39.935952,26.1746461 L39.935952,26.1746461 L39.622352,28.1832642 C39.584272,28.5130703 39.564112,28.7667673 39.564112,28.937737 C39.564112,29.4352036 39.636912,29.8576642 39.781392,30.1896764 C40.173392,30.9298097 40.742352,31.2893976 41.515152,31.2893976 C42.355152,31.2893976 43.010352,30.9187794 43.516592,30.1532764 C44.059792,29.3337248 44.428272,28.3729855 44.608592,27.2975309 C44.688112,26.6930703 44.727312,26.1911915 44.727312,25.807337 C44.727312,23.3376521 43.741712,23.0519673 43.001392,23.0519673 Z M31.583776,23.0850582 C30.642976,23.0850582 29.892576,23.5472279 29.290016,24.4947309 L29.290016,24.4947309 L29.283296,24.5046582 C28.849856,25.1411067 28.531776,26.0290461 28.335776,27.1431067 C28.256256,27.7894824 28.217056,28.3145248 28.217056,28.7005855 C28.217056,29.23004 28.282016,29.6911067 28.411936,30.0650339 C28.530656,30.4180036 28.740096,30.6926582 29.052576,30.905543 C29.368416,31.1206339 29.712256,31.2243188 30.097536,31.2243188 C31.070816,31.2243188 31.852576,30.7533248 32.489856,29.7826582 C32.926656,29.0579673 33.239136,28.1347309 33.414976,27.0383188 C33.493376,26.3787067 33.534816,25.8966824 33.534816,25.6021733 C33.534816,25.0407309 33.460896,24.571943 33.314176,24.2112521 C32.924416,23.4545733 32.357696,23.0850582 31.583776,23.0850582 Z M69.828752,2.80022061 C69.798512,2.88956606 71.965712,4.66544485 74.868752,5.89863273 C77.769552,7.13182061 80.977232,7.88408727 81.558512,10.2291297 C82.137552,12.5774812 83.452432,16.4568388 83.452432,16.4568388 L91.822192,16.4568388 L85.161552,21.5120267 L87.850672,29.4549479 L80.885392,24.580657 L73.492272,29.3347176 L76.365072,21.4822448 C76.365072,21.4822448 70.684432,18.68496 70.071792,15.3152024 C70.071792,15.3152024 72.087792,17.1804267 73.279472,17.6613479 C74.471152,18.1422691 76.701072,19.5265721 80.061072,20.4299539 L80.061072,19.9766085 C80.061072,19.9766085 76.030192,18.6242933 74.165392,17.3911055 C72.302832,16.1579176 69.981072,14.2022448 69.674192,11.5847539 C69.705552,11.7049842 72.058672,14.2022448 74.195632,15.2236509 C76.334832,16.247263 78.900752,17.3315418 80.397072,17.7220145 L80.397072,17.1495418 C80.397072,17.1495418 76.517392,15.7056752 74.228112,14.4735903 C71.936592,13.2404024 70.561232,11.9752267 69.491632,8.51612364 C69.491632,8.51612364 71.752912,11.0122812 74.287472,12.1252388 C76.823152,13.2381964 78.715952,14.352257 80.365712,14.8938448 L80.365712,14.2011418 C80.365712,14.2011418 76.120912,12.4561479 74.378192,11.5240873 C72.638832,10.5909236 69.645072,7.13182061 69.521872,5.68795394 C69.521872,5.68795394 72.424912,8.3947903 74.562992,9.26728727 C76.701072,10.1397842 78.106672,10.9218327 80.365712,11.6752024 L80.365712,11.0122812 C80.365712,11.0122812 76.518512,9.74931152 74.623472,8.63525091 C72.729552,7.52229333 70.071792,4.78567515 69.828752,2.80022061 Z" id="Fill-5" fill="#FFFFFF" fill-rule="evenodd"></path>
                <rect id="Rectangle-Copy-7" x="0" y="0" width="140" height="42"></rect>
            </g>
        </g>
    </g>
</svg>