<?xml version="1.0" encoding="UTF-8"?>
<svg width="136px" height="24px" viewBox="0 0 136 24" version="1.1" xmlns="http://www.w3.org/2000/svg" xmlns:xlink="http://www.w3.org/1999/xlink">
    <!-- Generator: Sketch 64 (93537) - https://sketch.com -->
    <title>Logo / Mapfre</title>
    <desc>Created with Sketch.</desc>
    <g id="Desktop" stroke="none" stroke-width="1" fill="none" fill-rule="evenodd">
        <g id="Home_Todas-Copy" transform="translate(-292.000000, -1204.000000)">
            <g id="Logo-/-Mapfre" transform="translate(290.000000, 1195.000000)">
                <path d="M120.288432,24.859717 L120.288432,24.7288169 C120.223454,22.6573795 118.565402,21.0004593 116.523086,21.0004593 C118.607974,21.0004593 120.288432,19.278089 120.288432,17.1400533 C120.288432,15.0043141 118.607974,13.2819438 116.523086,13.2819438 L111.650878,13.2819438 L105.461191,13.2819438 L105.461191,21.0211277 L105.461191,28.7614599 L111.118733,28.7614599 L111.118733,22.3507976 L112.332023,22.3507976 C113.693194,22.3507976 114.800056,23.4864138 114.800056,24.8815337 L114.800056,25.0124339 L114.800056,28.7614599 L116.5018,28.7614599 L120.266025,28.7614599 L120.266025,24.859717 L120.288432,24.859717 Z M120.288432,24.7288169 L120.288432,24.859717 L120.288432,24.7288169 L120.288432,24.7288169 Z M13.728578,9.8 C19.7535799,9.8 24.6560358,14.8247283 24.6560358,21 C24.6560358,27.1764199 19.7535799,32.2 13.728578,32.2 C7.70245592,32.2 2.8,27.1764199 2.8,21 C2.8,14.8247283 7.70245592,9.8 13.728578,9.8 Z M13.728578,11.6406397 C8.69280579,11.6406397 4.59584937,15.8386303 4.59584937,21 C4.59584937,26.1602214 8.69280579,30.3593603 13.728578,30.3593603 C18.7643503,30.3593603 22.8601864,26.1602214 22.8601864,21 C22.8601864,15.8386303 18.7643503,11.6406397 13.728578,11.6406397 Z M65.8288234,13.2386549 L70.168886,28.718171 L64.5953672,28.718171 L63.8940561,26.1897314 L57.9373929,26.1897314 L57.2349615,28.718171 L51.6401569,28.718171 L55.9802196,13.2386549 L65.8288234,13.2386549 Z M82.3588158,13.2594382 C84.8055625,13.2594382 86.7627358,15.2654255 86.7627358,17.7513799 C86.7627358,20.2361862 84.7831564,22.2651384 82.3588158,22.2651384 L82.3588158,22.2651384 L77.5078939,22.2651384 L77.5078939,28.7182858 L71.9343751,28.7182858 L71.9343751,13.2594382 Z M137.2,13.2378511 L137.2,15.7892557 L127.967564,15.7892557 L127.967564,19.7139635 L137.2,19.7139635 L137.2,22.2653681 L127.967564,22.2653681 L127.967564,26.1671109 L137.2,26.1671109 L137.2,28.7185155 L122.394045,28.7185155 L122.394045,13.2378511 L137.2,13.2378511 Z M36.8978357,13.2381956 L40.6004446,20.9773795 L44.2795272,13.2381956 L49.853046,13.2381956 L49.853046,28.7177117 L44.2795272,28.7177117 L44.2795272,20.9773795 L40.6004446,28.7177117 L36.8978357,20.9773795 L36.8978357,28.7177117 L31.3243169,28.7177117 L31.3243169,13.2381956 L36.8978357,13.2381956 Z M103.524968,13.2381956 L103.524968,15.7896002 L94.2712459,15.7896002 L94.2712459,19.714308 L103.524968,19.714308 L103.524968,22.2645643 L94.2712459,22.2645643 L94.2712459,28.7177117 L88.6977271,28.7177117 L88.6977271,13.2381956 L103.524968,13.2381956 Z M10.9555984,15.4974862 C13.0427271,14.7465327 14.8508999,14.8567644 16.4249288,15.477966 C16.9201037,15.6800574 17.34694,16.0945745 17.5844448,16.5814312 C18.0717776,16.5596145 18.4907717,16.6997006 18.8582319,16.9821694 C19.5259338,17.5516998 20.0838458,18.231462 20.4468248,18.9100759 C20.8232473,19.589838 21.0954815,20.3660529 21.2265572,21.1503055 C21.247843,21.2662784 21.2646476,21.3409145 21.2646476,21.440812 C21.302738,22.1745417 20.9184733,22.8864548 20.2653353,23.2791552 C19.9382062,23.4663195 19.5718663,23.5581792 19.1674361,23.5581792 L19.1674361,23.5581792 L14.6548464,23.5581792 L14.6548464,26.9604347 L12.7693727,26.9604347 L12.7693727,23.5581792 L8.22541443,23.5581792 C7.9016462,23.5926266 7.51402057,23.4984704 7.137598,23.2848965 C6.49118185,22.8944925 6.09011256,22.1469838 6.13044355,21.4166988 C6.13044355,21.3363215 6.13044355,21.2272381 6.17525576,21.1043756 C6.3108127,20.333902 6.57968596,19.5737626 6.95274762,18.9031864 C7.34149356,18.2050523 7.86131521,17.5677753 8.45731762,17.0579537 C8.83261989,16.7697437 9.31659177,16.6089891 9.79272152,16.5998032 C9.98317341,16.1841378 10.3147838,15.827033 10.7371389,15.5927906 C10.8693349,15.5422678 10.9130268,15.5204511 10.9555984,15.4974862 Z M60.8938786,15.5707443 L58.638704,23.6383268 L63.1703389,23.6383268 L60.8938786,15.5707443 Z M9.81736823,18.5116342 C9.77031541,18.4852245 9.70645801,18.4990035 9.67957068,18.5185237 C9.2370501,18.9135206 8.87295088,19.3532992 8.56934815,19.8608243 C8.27582816,20.4062415 8.09097779,20.9286939 8.00919551,21.4442567 C8.00471428,21.5418577 8.06072955,21.5981218 8.11114329,21.631421 L8.11114329,21.631421 L11.570646,21.6256797 L9.90139113,18.6218659 C9.88682716,18.598901 9.84201495,18.5288579 9.81736823,18.5116342 Z M17.7044419,18.4996839 L17.6707083,18.5093377 L17.5844448,18.6218659 L15.9174305,21.6245315 L19.3295485,21.6243188 C19.3567677,21.6238936 19.3851488,21.6226177 19.3970987,21.6187902 C19.4407906,21.5866393 19.4721592,21.5269305 19.4721592,21.440812 C19.3926175,20.9011359 19.1965641,20.3522739 18.9120065,19.855083 C18.5759149,19.3383719 18.1994924,18.8940004 17.7748967,18.5173754 C17.7491296,18.4990035 17.6987159,18.492114 17.6707083,18.5093377 Z M15.816603,17.287603 C14.6010718,16.8018946 13.0561708,16.7777814 11.7095639,17.2428214 L11.7095639,17.2428214 L11.5784881,17.3082715 C11.5291947,17.3507566 11.4877434,17.4368751 11.4877434,17.5344761 L11.4877434,17.5344761 L11.5247135,17.5723683 L11.556082,17.7044166 L13.7698053,21.6107525 L15.897265,17.6745622 C15.9544006,17.5918885 15.9667239,17.5585893 15.9667239,17.4713225 C15.963363,17.4322821 15.897265,17.3254952 15.816603,17.287603 Z M112.332023,15.0261308 C113.56548,15.0261308 114.800056,15.7231167 114.800056,17.1193849 C114.800056,18.5145048 113.693194,19.6478245 112.332023,19.6478245 L111.118733,19.6478245 L111.118733,15.0261308 L112.332023,15.0261308 Z M78.8052074,15.0254419 L77.5930371,15.0254419 L77.5930371,19.6471355 L78.8052074,19.6471355 C80.1887844,19.6471355 81.27324,18.5138159 81.27324,17.1186959 C81.27324,15.723576 80.0610696,15.0254419 78.8052074,15.0254419 L78.8052074,15.0254419 Z" id="Mapfre" fill="#FFFFFF" fill-rule="evenodd"></path>
                <rect id="Rectangle-Copy-6" x="0" y="0" width="140" height="42"></rect>
            </g>
        </g>
    </g>
</svg>