<?xml version="1.0" encoding="UTF-8"?>
<svg width="126px" height="28px" viewBox="0 0 126 28" version="1.1" xmlns="http://www.w3.org/2000/svg" xmlns:xlink="http://www.w3.org/1999/xlink">
    <!-- Generator: Sketch 64 (93537) - https://sketch.com -->
    <title>Logo / Sanofi</title>
    <desc>Created with Sketch.</desc>
    <g id="Desktop" stroke="none" stroke-width="1" fill="none" fill-rule="evenodd">
        <g id="Home_Todas-Copy" transform="translate(-537.000000, -1275.000000)">
            <g id="Logo-/-Sanofi" transform="translate(530.000000, 1268.000000)">
                <path d="M34.2446943,17.1392656 C34.3349993,17.1504656 34.3673308,17.1818256 34.3896283,17.2669456 C34.6270971,18.1495058 34.7820651,19.044386 34.8400387,19.9571862 C34.8656809,20.3312663 34.8879784,20.7053464 34.8846338,21.0794265 C34.8601065,23.0808669 34.4576358,24.9994273 33.6248226,26.8216677 C33.0227889,28.139908 32.2368006,29.3338282 31.2657426,30.4090284 C30.0293438,31.7787887 28.5811184,32.858469 26.9221812,33.6525491 C25.4204417,34.3727093 23.8373162,34.8016694 22.1794939,34.9450294 C19.973152,35.1365494 17.8359325,34.8285494 15.7767544,34.0064692 C14.4834969,33.4890291 13.293923,32.7867889 12.2102625,31.9064688 C12.1801608,31.8818288 12.1556335,31.8515887 12.1277615,31.8235887 C12.1344508,31.8179887 12.1400252,31.8101487 12.1455996,31.8034287 C12.6294563,31.9680688 13.1200022,32.1024688 13.6250415,32.1831088 C14.4623143,32.3175088 15.3018168,32.3343088 16.1480085,32.2682288 C16.9986598,32.1999088 17.8292432,32.0475888 18.6341845,31.7642287 C19.6821691,31.3946286 20.6041725,30.8223085 21.4102286,30.0539884 C22.2842923,29.2184682 22.9465293,28.229508 23.5195762,27.1733478 C24.1728942,25.9693475 24.6890823,24.6992672 25.2398316,23.447107 C25.7392966,22.3103067 26.2554847,21.1824665 26.9556275,20.1509463 C27.5877629,19.2179861 28.3458793,18.4160659 29.33812,17.8605458 C30.1798522,17.3890257 31.0873622,17.1504656 32.0428119,17.0731856 C32.7797457,17.0127056 33.51222,17.0451856 34.2446943,17.1392656 Z M52.6127412,14.453505 C53.7019761,15.2946252 54.3642131,16.3955855 54.5403637,17.7765458 C54.5782696,18.0800658 54.5760398,18.0800658 54.2772527,18.0811858 L53.2850121,18.0811858 C52.931596,18.0811858 52.5770651,18.0755858 52.2225342,18.0834258 C52.0854043,18.0867858 52.0363497,18.0431058 52.0129372,17.9019858 C51.7955362,16.5299855 50.6550169,15.5701453 49.2625353,15.5634253 C48.4408709,15.5589453 47.7217751,15.7986253 47.1163968,16.3731855 C46.2133464,17.2322256 46.1241562,18.911106 47.3661293,19.7712662 C47.8098504,20.0770262 48.3026261,20.2461463 48.7976316,20.4219863 C49.919198,20.8229464 51.0519132,21.1947865 52.1500671,21.6629466 C53.7610646,22.3517467 54.6986763,23.568067 54.8893203,25.3007074 C55.0576667,26.8082277 54.6440473,28.184708 53.639543,29.3405482 C52.5425039,30.6027885 51.125495,31.2109486 49.4732471,31.2938286 C47.8377224,31.3767086 46.3649696,30.9376686 45.1085031,29.8680683 C44.0817013,28.9967081 43.4919313,27.8733479 43.3090914,26.5360676 C43.2879087,26.3882276 43.2823344,26.2370276 43.2611517,26.0891875 C43.239969,25.9435875 43.2923682,25.8976675 43.439532,25.8987875 C44.1407898,25.9066275 44.8409326,25.9066275 45.5421903,25.8987875 C45.7038475,25.8976675 45.7495575,25.9559075 45.7774294,26.1115875 C45.9145593,26.8687077 46.1843596,27.5653478 46.7351089,28.128708 C47.2468375,28.6517481 47.8722835,28.9272681 48.5869198,29.0213481 C49.6326746,29.1602282 50.5858945,28.9407081 51.416478,28.272068 C52.5792948,27.3335078 52.7164247,25.5247074 51.7018865,24.4360672 C51.35293,24.0619871 50.908094,23.818947 50.427582,23.650947 C49.3394619,23.2701469 48.2446525,22.9061468 47.1576473,22.5197468 C46.3973011,22.2487067 45.6793202,21.8959066 45.109618,21.3000665 C44.2043377,20.3536663 43.8464622,19.2235861 43.9590648,17.9221458 C44.0638632,16.7181455 44.5209629,15.6787853 45.372729,14.8298251 C46.2155761,13.9875849 47.2568714,13.5384648 48.4230329,13.3693448 C49.9682526,13.1453448 51.3729978,13.4959048 52.6127412,14.453505 Z M79.5463891,14.269041 C80.5586975,15.9221614 81.5654316,17.5786417 82.5654764,19.2396021 C84.0594118,21.7159226 85.545543,24.1956031 87.0350189,26.6741636 C87.0684652,26.7301637 87.1086008,26.7839237 87.1777231,26.8858437 L87.1777231,26.5991236 C87.1777231,23.9973631 87.1743785,21.3956025 87.1777231,18.792722 C87.1799529,17.1172016 87.1933314,15.4416813 87.1933314,13.7650409 C87.1933314,13.5959209 87.2234331,13.5354408 87.4085027,13.5388008 C88.1175646,13.5511209 88.8266264,13.5477609 89.5334585,13.5410409 C89.6861967,13.5388008 89.7530893,13.5612009 89.7519882,13.7404009 C89.7475149,18.990962 89.7497447,24.2426431 89.7464001,29.4932042 C89.7464001,30.2536844 89.1978805,30.9536846 88.4654062,31.1530446 C87.6537757,31.3736846 86.8822807,31.0757646 86.4519381,30.3656844 C85.1308087,28.191764 83.8096793,26.0167235 82.4952391,23.837203 C81.3190438,21.8872826 80.1528823,19.9317622 78.9822613,17.9784818 C78.9387811,17.9045618 78.8908413,17.8351218 78.8061107,17.7029617 L78.8061107,18.0098418 C78.8061107,22.2647227 78.8049958,26.5196036 78.8116851,30.7744845 C78.8116851,30.9973646 78.76709,31.0679246 78.5318509,31.0623246 C77.8317081,31.0455246 77.1304503,31.0522446 76.4303075,31.0600846 C76.2786842,31.0623246 76.2329742,31.0220046 76.2329742,30.8652045 C76.2374337,25.6370434 76.2340891,20.4100023 76.2374337,15.1829612 C76.2385486,14.379921 76.7781492,13.6765609 77.5173127,13.4648808 C78.3233689,13.2330408 79.093749,13.5276008 79.5463891,14.269041 Z M103.11478,13.3995848 C107.874191,13.5407049 111.702679,17.4147857 111.669233,22.3394267 C111.728321,27.0803877 107.799494,31.2803886 102.71231,31.2221486 C97.9027298,31.1683886 93.9192737,27.2775078 93.9326186,22.3125467 C93.943801,17.2512656 97.9751968,13.2483848 103.11478,13.3995848 Z M7.20535599,19.4214901 C7.98576999,20.4541303 8.89885437,21.3456505 9.9847447,22.0546107 C10.907863,22.6582908 11.9123673,23.0872509 12.9469733,23.452371 L13.8921929,23.7787838 C14.3644281,23.9431551 14.8340143,24.1151871 15.2915599,24.3214911 C16.4276197,24.8344513 17.1968849,25.6654914 17.4566513,26.9075717 C17.6829714,27.9928519 17.432124,28.9840521 16.7409002,29.8475723 C16.1109946,30.6360525 15.2703772,31.0560526 14.2770217,31.1702926 C12.8956889,31.3282126 11.697196,30.8824525 10.6269139,30.0323724 C9.81528338,29.3894922 9.22997288,28.558452 8.71155501,27.6736519 C7.9657022,26.3979716 7.50971745,25.0147713 7.23545767,23.568851 C7.11616582,22.9394108 7.04481368,22.3054907 7.01805663,21.6659706 C7.00802273,21.4386105 7.01248224,21.2123705 7.00133347,21.0365304 C6.99241445,20.4731703 7.0292054,19.9624502 7.0827195,19.4528501 C7.08606413,19.4158901 7.07157073,19.3610101 7.11282119,19.3464501 C7.16410553,19.3285301 7.18082869,19.3890101 7.20535599,19.4214901 Z M132.746877,13.5374568 C132.968738,13.5318568 132.999978,13.6091369 132.998839,13.8051369 C132.993265,16.6454575 132.995495,19.4846581 132.995495,22.3238587 C132.995495,25.1406593 132.99215,27.9552199 132.999978,30.7720205 C133.001069,30.9904206 132.963163,31.0699406 132.723465,31.0632206 C132.045619,31.0441806 131.368889,31.0486606 130.692158,31.0621006 C130.483676,31.0654606 130.417899,31.0195406 130.418998,30.7944205 C130.426818,26.6504196 130.424588,22.5052988 130.424588,18.3612979 C130.424588,16.8347376 130.429047,15.3070572 130.418998,13.7816169 C130.417899,13.5766569 130.476987,13.5352168 130.668746,13.5385768 C131.361085,13.5508969 132.054538,13.5542569 132.746877,13.5374568 Z M125.626157,13.5397885 C125.803422,13.5386888 125.850247,13.5834889 125.846902,13.7615689 C125.834639,14.394369 125.833524,15.0271692 125.846902,15.6599693 C125.851362,15.8593293 125.812341,15.9231694 125.593825,15.9220494 L118.745135,15.9108494 L118.745135,15.9108494 C118.51324,15.9097294 118.465301,15.9702094 118.466416,16.1953294 C118.477564,17.9044498 118.475335,19.6124501 118.467531,21.3204505 C118.466416,21.5130905 118.508781,21.5702106 118.709459,21.5690906 C120.999417,21.5612506 123.291604,21.5679706 125.582676,21.5590106 C125.804537,21.5578906 125.851362,21.6239706 125.846902,21.8322906 C125.833524,22.4572507 125.834639,23.0833309 125.846902,23.707171 C125.850247,23.8919711 125.802307,23.9423711 125.615008,23.9423711 C123.33174,23.9345311 121.048471,23.9423711 118.765203,23.9300511 C118.508781,23.9289311 118.466416,24.0084511 118.466416,24.2436511 C118.47645,26.4343716 118.46976,28.6250921 118.477564,30.8158125 C118.477564,31.0140526 118.42851,31.0655726 118.231177,31.0623643 C117.531034,31.0487726 116.829776,31.0498926 116.129633,31.0623643 C115.938989,31.0655726 115.896624,31.0050926 115.897718,30.8236525 L115.901499,26.9439717 L115.901499,26.9439717 L115.901083,23.0642909 C115.901083,20.5106903 115.901083,17.9548498 115.902198,15.4012492 C115.902198,14.5410891 116.300209,13.9206089 117.019305,13.6562889 C117.259004,13.5678089 117.510966,13.5465289 117.760698,13.5465289 C120.382889,13.5420489 123.003966,13.5454089 125.626157,13.5397885 Z M64.8177472,13.4014888 C65.5413024,13.4014888 66.1812419,13.8293289 66.434319,14.4968491 C67.5425069,17.4278897 68.648465,20.3611703 69.755538,23.2933309 C70.6931497,25.7752515 71.6307614,28.257172 72.5683731,30.7402125 C72.5706028,30.7469325 72.5750623,30.7547725 72.578407,30.7614925 C72.6898947,31.0560526 72.6898947,31.0560526 72.3676952,31.0560526 C71.6508292,31.0560526 70.9350781,31.0493326 70.2182121,31.0617146 C70.046521,31.0638926 69.9729391,31.0056526 69.9171952,30.8488525 C69.3831691,29.3682122 68.839109,27.8898119 68.3061978,26.4080516 C68.2393051,26.2210115 68.159034,26.1426115 67.9449776,26.1437315 C65.8590424,26.1526915 63.7731073,26.1515715 61.6871722,26.1448515 C61.4954133,26.1448515 61.3973041,26.1930115 61.3292966,26.3811716 C60.7919258,27.8786119 60.2434063,29.3715722 59.6993462,30.8667725 C59.6625553,30.9630926 59.646947,31.0594126 59.5042427,31.0582926 C58.6625105,31.0538126 57.8207782,31.0560526 56.9433699,31.0560526 C57.2622248,30.2082124 57.5632416,29.3962122 57.8698328,28.5875721 C59.6458321,23.8869311 61.4207165,19.1874101 63.1989456,14.4878891 C63.4509078,13.8237289 64.0863878,13.4014888 64.8177472,13.4014888 Z M102.742411,15.7963853 C102.553997,15.8053453 102.365583,15.8120653 102.177169,15.8221453 C102.091323,15.8277453 102.006593,15.8411853 101.920747,15.8535053 C100.427926,16.0651854 99.1714599,16.7427855 98.1881383,17.8773458 C96.966233,19.2874261 96.4310919,20.9528664 96.5526135,22.8199068 C96.6707905,24.6231072 97.4021499,26.1373475 98.7678744,27.3144678 C100.024341,28.399748 101.499323,28.8891881 103.159375,28.7973481 C104.978855,28.6987881 106.469446,27.9248679 107.621114,26.5237476 C108.666869,25.2503073 109.126198,23.764067 109.073799,22.1131867 C109.040352,21.0883865 108.827411,20.1050262 108.348014,19.2034261 C107.157325,16.9578256 105.244196,15.8837453 102.742411,15.7963853 Z M64.8333555,16.8846896 C64.7508545,16.9238896 64.7541992,16.9877296 64.7352463,17.0370096 C64.4765948,17.7470897 64.2190582,18.4560499 63.9615215,19.16613 C63.4286103,20.6310904 62.8945841,22.0938107 62.3672472,23.559891 C62.3349158,23.650611 62.1821776,23.816371 62.4698159,23.817491 C64.0417927,23.819731 65.6148843,23.832051 67.1868611,23.845524 C67.3295654,23.846611 67.3630117,23.819731 67.3083827,23.678611 C67.1132792,23.1622909 66.9293245,22.6437308 66.7409102,22.1262907 C66.1065452,20.3802103 65.4699503,18.6341299 64.8333555,16.8846896 Z M21.5199325,7.00662346 C22.5857551,7.05590347 23.6348545,7.2127035 24.665001,7.49942357 C25.6059573,7.76038362 26.5078929,8.1165437 27.3730375,8.56790379 C28.321798,9.0640639 29.201436,9.66326403 30.0141815,10.3621442 C31.216019,11.3947844 32.2116043,12.5999047 33.0065117,13.9719049 C33.4925982,14.8130251 33.8917242,15.6978253 34.1916261,16.6251855 C34.2005452,16.6543055 34.2150386,16.6800655 34.1916261,16.7293455 C33.9151366,16.3328654 33.6353024,15.9599054 33.3197922,15.6149453 C32.7344817,14.9799052 32.087853,14.423265 31.29852,14.057025 C30.7087499,13.7837449 30.0899931,13.6314249 29.4411346,13.5832649 C28.4020691,13.5082248 27.4020243,13.7187849 26.4086688,13.9808649 C25.2425073,14.289985 24.1053326,14.7055051 22.931367,14.9866252 C22.3215292,15.1333452 21.706117,15.2464652 21.0762114,15.2879052 C20.1631271,15.3483852 19.2678807,15.2767052 18.4205741,14.9138251 C17.0481603,14.325825 16.1908198,13.2999048 15.9789931,11.8024645 C15.8184508,10.6600642 16.143995,9.63526402 16.8920775,8.75718383 C17.6312411,7.89254365 18.5967247,7.42998355 19.6792704,7.1835835 C20.2846487,7.04582347 20.898946,6.97750345 21.5199325,7.00662346 Z" id="Sanofi" fill="#FFFFFF" fill-rule="evenodd"></path>
                <rect id="Rectangle-Copy-7" x="0" y="0" width="140" height="42"></rect>
            </g>
        </g>
    </g>
</svg>