<?xml version="1.0" encoding="UTF-8"?>
<svg width="137px" height="24px" viewBox="0 0 137 24" version="1.1" xmlns="http://www.w3.org/2000/svg" xmlns:xlink="http://www.w3.org/1999/xlink">
    <!-- Generator: Sketch 64 (93537) - https://sketch.com -->
    <title>Logo / Santander</title>
    <desc>Created with Sketch.</desc>
    <g id="Desktop" stroke="none" stroke-width="1" fill="none" fill-rule="evenodd">
        <g id="Home_Todas-Copy" transform="translate(-1012.000000, -1277.000000)" fill="#FFFFFF">
            <g id="Logo-/-Santander" transform="translate(1010.000000, 1268.000000)">
                <path d="M138.6,19.9476548 C138.6,20.7037634 138.485573,21.56821 138.372338,22.0523452 C137.74418,21.9981762 137.17562,21.9462643 136.434228,21.9462643 C135.80607,21.9462643 135.179105,21.9981762 134.552139,22.0523452 L134.552139,31.5533579 L131.987064,31.5533579 L131.987064,20.4340471 C133.069354,20.0559927 134.951443,19.7851479 136.377014,19.7851479 C137.118407,19.8393168 138.029056,19.8393168 138.6,19.9476548 M121.269054,24.7517658 L127.084576,24.7517658 C127.084576,22.9167918 126.058307,21.8379263 124.290646,21.8379263 C122.408558,21.8920953 121.440695,22.8626228 121.269054,24.7517658 M129.536416,26.8034158 L121.269054,26.8034158 C121.611144,28.8008968 122.807861,29.7172553 125.145274,29.7172553 C126.570846,29.7172553 127.996417,29.4475389 129.250348,28.8550657 C129.137113,29.5017079 129.022686,30.3650259 128.851045,31.0680941 C127.653136,31.5533579 126.456418,31.7700338 125.030847,31.7700338 C120.69811,31.7700338 118.646765,29.5017079 118.646765,25.7234218 C118.646765,22.4303995 120.242786,19.7851479 124.34786,19.7851479 C128.052439,19.7851479 129.649651,22.0523452 129.649651,24.8601038 C129.649651,25.6150839 129.649651,26.1556451 129.536416,26.8034158 M113.971939,29.0164442 L113.971939,22.1606832 C113.28776,22.0523452 112.602389,21.9462643 111.91821,21.9462643 C109.353135,21.9462643 108.156417,23.4562245 108.156417,25.9931382 C108.156417,28.2603355 109.125472,29.8797622 111.406864,29.8797622 C112.43194,29.8255932 113.28776,29.5017079 113.971939,29.0164442 M116.537015,16.0079903 L116.537015,31.5533579 L114.142388,31.5533579 L114.029153,30.1494786 C113.344974,31.1753035 112.374727,31.8219457 110.664279,31.8219457 C107.585474,31.8219457 105.476915,29.6630863 105.476915,25.9400977 C105.476915,22.0523452 107.699901,19.7851479 112.032637,19.7851479 C112.716816,19.7851479 113.344974,19.8393168 113.971939,19.9476548 L113.971939,16.2777067 C114.769353,16.0621593 115.681195,16.0079903 116.537015,16.0079903 M103.481591,24.1051237 L103.481591,31.5533579 L100.859303,31.5533579 L100.859303,24.5350899 C100.859303,22.7542849 100.232337,21.9462643 97.6660698,21.9462643 C97.0391044,21.9462643 96.3549253,21.9993048 95.6147247,22.1065142 L95.6147247,31.5533579 L93.0484574,31.5533579 L93.0484574,20.4340471 C94.7016914,20.0559927 96.5253741,19.7851479 97.7232834,19.7851479 C102.05602,19.8393168 103.481591,21.4057031 103.481591,24.1051237 M87.6322388,29.0164442 L87.6322388,22.0523452 C87.1197005,21.9462643 86.4915431,21.9462643 85.7513425,21.9462643 C83.07184,21.9462643 81.8167171,23.5103935 81.8167171,25.9931382 C81.8167171,28.2603355 82.786964,29.8797622 85.0671635,29.8797622 C86.1494536,29.8255932 87.0052734,29.5017079 87.6322388,29.0164442 M90.2545277,20.4340471 L90.2545277,31.5533579 L87.8610931,31.5533579 L87.746666,30.2036475 C87.0624869,31.1753035 86.09224,31.8219457 84.440198,31.8219457 C81.3613924,31.8219457 79.2516418,29.6630863 79.2516418,25.9400977 C79.2516418,22.0523452 81.4746276,19.7851479 85.8085561,19.7851479 C87.5190036,19.8393168 88.8861697,20.0018238 90.2545277,20.4340471 M76.4004985,29.7714243 C77.1418911,29.7714243 77.8844757,29.6630863 78.395822,29.4475389 C78.3386085,30.0953096 78.2253733,30.8514182 78.112138,31.4991889 C77.427959,31.7700338 76.6293529,31.8761147 75.9451738,31.8761147 C73.4361201,31.8761147 71.8400997,30.7972492 71.8400997,28.0989571 L71.8400997,16.3860446 C72.6387059,16.1151998 73.6077608,16.0079903 74.406367,16.0079903 L74.406367,20.2173712 L78.5102492,20.2173712 C78.4530356,20.9734798 78.395822,21.6754194 78.2825868,22.3220616 L74.406367,22.3220616 L74.406367,27.7750718 C74.406367,29.1789511 75.1477596,29.7714243 76.4004985,29.7714243 M69.2178108,24.1051237 L69.2178108,31.5533579 L66.6527354,31.5533579 L66.6527354,24.5350899 C66.6527354,22.7542849 66.024578,21.9462643 63.4595027,21.9462643 C62.8325372,21.9462643 62.1483582,21.9993048 61.4069656,22.1065142 L61.4069656,31.5533579 L58.8418903,31.5533579 L58.8418903,20.4340471 C60.4951242,20.0559927 62.3199989,19.7851479 63.5167163,19.7851479 C67.8506447,19.8393168 69.2178108,21.4057031 69.2178108,24.1051237 M53.4256717,29.0164442 L53.4256717,22.0523452 C52.9119414,21.9462643 52.2861679,21.9462643 51.5447753,21.9462643 C48.8652728,21.9462643 47.61015,23.5103935 47.61015,25.9931382 C47.61015,28.2603355 48.5803969,29.8797622 50.8605963,29.8797622 C51.9440784,29.8255932 52.7414927,29.5017079 53.4256717,29.0164442 M55.990747,20.4340471 L55.990747,31.5533579 L53.5973124,31.5533579 L53.4828853,30.2036475 C52.7987062,31.1753035 51.8296513,31.8219457 50.1752254,31.8219457 C47.0976117,31.8219457 44.9878611,29.6630863 44.9878611,25.9400977 C44.9878611,22.0523452 47.2120389,19.7851479 51.5447753,19.7851479 C53.2540309,19.8393168 54.6807945,20.0018238 55.990747,20.4340471 M32.5594035,31.0680941 C32.6166171,30.1494786 32.7310442,29.5558769 33.0159202,28.8008968 C34.3270646,29.3933699 36.0375122,29.6630863 37.2914431,29.6630863 C39.4584073,29.6630863 40.7123382,29.0164442 40.7123382,27.6667338 C40.7123382,26.3711925 39.7993048,25.7775908 37.6335326,24.8601038 L36.4368153,24.429009 C34.2138294,23.5103935 32.7310442,22.3220616 32.7310442,20.0018238 C32.7310442,17.4649101 34.6119406,15.8454834 38.3749252,15.8454834 C39.913732,15.8454834 41.3393036,16.0621593 42.6504481,16.4932541 C42.5932345,17.3565721 42.4227857,18.0585118 42.1939314,18.7062824 C40.9400005,18.2751877 39.4011937,18.0585118 38.3177116,18.0585118 C36.2663665,18.0585118 35.3533332,18.8146204 35.3533332,20.0018238 C35.3533332,21.1359867 36.2663665,21.8379263 37.9184085,22.4845685 L39.1735313,22.9709608 C42.1367178,24.1581641 43.3918407,25.4537055 43.3918407,27.6125649 C43.3918407,30.1494786 41.3393036,31.9302836 37.3486566,31.9302836 C35.4677603,31.9302836 33.8717399,31.6616958 32.5594035,31.0680941 M20.7591033,20.1101617 C20.7018897,19.3010126 20.4730354,18.490735 20.0177107,17.7887954 L16.1414909,11.3663862 C15.855423,10.879994 15.6277607,10.3394327 15.5133335,9.8 L15.3428847,10.0697164 C14.3726378,11.6361026 14.3726378,13.632455 15.3428847,15.1977127 L18.4789039,20.3257091 C19.4467669,21.8920953 19.4467669,23.8884478 18.4789039,25.4537055 L18.3072632,25.7234218 C18.192836,25.1839891 17.9651737,24.6434279 17.6802977,24.1581641 L14.8291545,19.4623911 L13.0054717,16.4402136 C12.7205958,15.9538214 12.4917415,15.4132601 12.3773143,14.8738274 L12.2068656,15.1435438 C11.2366187,16.70993 11.2366187,18.653242 12.2068656,20.2715401 L15.3428847,25.3995365 C16.3107477,26.9647942 16.3107477,28.9622752 15.3428847,30.5275329 L15.171244,30.7972492 C15.0580088,30.2578165 14.8291545,29.7172553 14.5442786,29.2331201 L10.6108452,22.8084538 C10.0971149,21.9462643 9.86945256,20.9734798 9.86945256,20.0018238 C5.70835681,21.0276487 2.8,23.2406771 2.8,25.7775908 C2.8,29.339201 8.38785932,32.2 15.2856712,32.2 C22.183483,32.2 27.7713423,29.339201 27.7713423,25.7775908 C27.8273639,23.3490151 24.9774126,21.1359867 20.7591033,20.1101617" id="Fill-1"></path>
            </g>
        </g>
    </g>
</svg>